InstrumentsSerif-Regular.ufo
<glyph name="exclam" format="2">
	<unicode hex="0021"/>
	<advance width="237"/>
	<outline>
		<contour>
			<point x="117" y="179" type="curve"/>
			<point x="125" y="179"/>
			<point x="129" y="185"/>
			<point x="129" y="195" type="curve"/>
			<point x="131" y="370"/>
			<point x="163" y="639"/>
			<point x="163" y="694" type="curve"/>
			<point x="163" y="727"/>
			<point x="146" y="750"/>
			<point x="117" y="750" type="curve"/>
			<point x="88" y="750"/>
			<point x="71" y="727"/>
			<point x="71" y="694" type="curve"/>
			<point x="71" y="639"/>
			<point x="103" y="370"/>
			<point x="105" y="195" type="curve"/>
			<point x="105" y="185"/>
			<point x="110" y="179"/>
		</contour>
		<component base="period" xOffset="10"/>
	</outline>
</glyph>
<glyph name="numbersign" format="2">
  <advance width="635"/>
  <unicode hex="0023"/>
  <outline>
    <contour>
      <point x="106" y="0" type="line"/>
      <point x="138" y="0" type="line"/>
      <point x="187" y="213" type="line" smooth="yes"/>
      <point x="190" y="224"/>
      <point x="197" y="230"/>
      <point x="209" y="230" type="curve" smooth="yes"/>
      <point x="367" y="230" type="line" smooth="yes"/>
      <point x="377" y="230"/>
      <point x="382" y="224"/>
      <point x="380" y="213" type="curve" smooth="yes"/>
      <point x="331" y="0" type="line"/>
      <point x="363" y="0" type="line"/>
      <point x="412" y="213" type="line" smooth="yes"/>
      <point x="415" y="224"/>
      <point x="422" y="230"/>
      <point x="434" y="230" type="curve" smooth="yes"/>
      <point x="562" y="230" type="line"/>
      <point x="562" y="260" type="line"/>
      <point x="440" y="260" type="line" smooth="yes"/>
      <point x="430" y="260"/>
      <point x="425" y="266"/>
      <point x="427" y="277" type="curve" smooth="yes"/>
      <point x="465" y="442" type="line" smooth="yes"/>
      <point x="468" y="453"/>
      <point x="475" y="460"/>
      <point x="487" y="460" type="curve" smooth="yes"/>
      <point x="615" y="460" type="line"/>
      <point x="615" y="490" type="line"/>
      <point x="493" y="490" type="line" smooth="yes"/>
      <point x="483" y="490"/>
      <point x="478" y="496"/>
      <point x="480" y="507" type="curve" smooth="yes"/>
      <point x="529" y="720" type="line"/>
      <point x="497" y="720" type="line"/>
      <point x="448" y="507" type="line" smooth="yes"/>
      <point x="445" y="496"/>
      <point x="438" y="490"/>
      <point x="426" y="490" type="curve" smooth="yes"/>
      <point x="268" y="490" type="line" smooth="yes"/>
      <point x="258" y="490"/>
      <point x="253" y="496"/>
      <point x="255" y="507" type="curve" smooth="yes"/>
      <point x="304" y="720" type="line"/>
      <point x="272" y="720" type="line"/>
      <point x="223" y="507" type="line" smooth="yes"/>
      <point x="220" y="496"/>
      <point x="213" y="490"/>
      <point x="201" y="490" type="curve" smooth="yes"/>
      <point x="73" y="490" type="line"/>
      <point x="73" y="460" type="line"/>
      <point x="195" y="460" type="line" smooth="yes"/>
      <point x="205" y="460"/>
      <point x="210" y="454"/>
      <point x="208" y="443" type="curve" smooth="yes"/>
      <point x="170" y="278" type="line" smooth="yes"/>
      <point x="167" y="267"/>
      <point x="160" y="260"/>
      <point x="148" y="260" type="curve" smooth="yes"/>
      <point x="20" y="260" type="line"/>
      <point x="20" y="230" type="line"/>
      <point x="142" y="230" type="line" smooth="yes"/>
      <point x="152" y="230"/>
      <point x="157" y="224"/>
      <point x="155" y="213" type="curve" smooth="yes"/>
    </contour>
    <contour>
      <point x="215" y="260" type="line" smooth="yes"/>
      <point x="205" y="260"/>
      <point x="200" y="266"/>
      <point x="202" y="277" type="curve" smooth="yes"/>
      <point x="240" y="442" type="line" smooth="yes"/>
      <point x="243" y="453"/>
      <point x="250" y="460"/>
      <point x="262" y="460" type="curve" smooth="yes"/>
      <point x="420" y="460" type="line" smooth="yes"/>
      <point x="430" y="460"/>
      <point x="435" y="454"/>
      <point x="433" y="443" type="curve" smooth="yes"/>
      <point x="395" y="278" type="line" smooth="yes"/>
      <point x="392" y="267"/>
      <point x="385" y="260"/>
      <point x="373" y="260" type="curve" smooth="yes"/>
    </contour>
  </outline>
</glyph>
<glyph name="dollar" format="2">
	<unicode hex="0024"/>
	<advance width="416"/>
	<outline>
		<contour>
			<point x="210" y="-109" type="curve" smooth="yes"/>
			<point x="218" y="-109" type="line"/>
			<point x="223" y="-109"/>
			<point x="226" y="-106"/>
			<point x="226" y="-101" type="curve" smooth="yes"/>
			<point x="226" y="822" type="line"/>
			<point x="226" y="827"/>
			<point x="223" y="830"/>
			<point x="218" y="830" type="curve" smooth="yes"/>
			<point x="210" y="830" type="line"/>
			<point x="205" y="830"/>
			<point x="202" y="827"/>
			<point x="202" y="822" type="curve" smooth="yes"/>
			<point x="202" y="-101" type="line"/>
			<point x="202" y="-106"/>
			<point x="205" y="-109"/>
		</contour>
		<component base="S"/>
	</outline>
</glyph>
<glyph name="parenleft" format="2">
  <advance width="340"/>
  <unicode hex="0028"/>
  <outline>
    <contour>
      <point x="293" y="-108" type="curve" smooth="yes"/>
      <point x="299" y="-108"/>
      <point x="302" y="-104"/>
      <point x="302" y="-100" type="curve" smooth="yes"/>
      <point x="302" y="-96"/>
      <point x="300" y="-93"/>
      <point x="296" y="-89" type="curve" smooth="yes"/>
      <point x="186" y="10"/>
      <point x="138" y="159"/>
      <point x="138" y="322" type="curve" smooth="yes"/>
      <point x="138" y="485"/>
      <point x="186" y="634"/>
      <point x="296" y="733" type="curve" smooth="yes"/>
      <point x="300" y="737"/>
      <point x="302" y="740"/>
      <point x="302" y="744" type="curve" smooth="yes"/>
      <point x="302" y="748"/>
      <point x="299" y="752"/>
      <point x="293" y="752" type="curve" smooth="yes"/>
      <point x="290" y="752"/>
      <point x="287" y="751"/>
      <point x="284" y="749" type="curve" smooth="yes"/>
      <point x="190" y="682"/>
      <point x="70" y="531"/>
      <point x="70" y="322" type="curve" smooth="yes"/>
      <point x="70" y="113"/>
      <point x="190" y="-38"/>
      <point x="284" y="-105" type="curve" smooth="yes"/>
      <point x="287" y="-107"/>
      <point x="290" y="-108"/>
    </contour>
  </outline>
</glyph>
<glyph name="one" format="2">
	<unicode hex="0031"/>
	<advance width="248"/>
	<outline>
		<contour>
			<point x="20" y="0" type="curve" smooth="yes"/>
			<point x="224" y="0" type="line"/>
			<point x="234" y="0"/>
			<point x="239" y="4"/>
			<point x="239" y="11" type="curve" smooth="yes"/>
			<point x="239" y="17"/>
			<point x="235" y="22"/>
			<point x="226" y="23" type="curve" smooth="yes"/>
			<point x="193" y="27" type="line"/>
			<point x="165" y="30"/>
			<point x="157" y="38"/>
			<point x="157" y="66" type="curve" smooth="yes"/>
			<point x="157" y="713" type="line"/>
			<point x="157" y="728"/>
			<point x="150" y="735"/>
			<point x="136" y="735" type="curve" smooth="yes"/>
			<point x="120" y="735"/>
			<point x="91" y="721"/>
			<point x="21" y="709" type="curve" smooth="yes"/>
			<point x="9" y="707"/>
			<point x="5" y="701"/>
			<point x="5" y="695" type="curve" smooth="yes"/>
			<point x="5" y="687"/>
			<point x="11" y="681"/>
			<point x="23" y="682" type="curve" smooth="yes"/>
			<point x="59" y="686" type="line"/>
			<point x="79" y="688"/>
			<point x="93" y="683"/>
			<point x="93" y="660" type="curve" smooth="yes"/>
			<point x="93" y="66" type="line"/>
			<point x="93" y="38"/>
			<point x="85" y="30"/>
			<point x="57" y="27" type="curve" smooth="yes"/>
			<point x="18" y="23" type="line"/>
			<point x="9" y="22"/>
			<point x="5" y="17"/>
			<point x="5" y="11" type="curve" smooth="yes"/>
			<point x="5" y="4"/>
			<point x="10" y="0"/>
		</contour>
	</outline>
</glyph>
<glyph name="six" format="2">
	<unicode hex="0036"/>
	<advance width="404"/>
	<outline>
		<contour>
			<point x="206" y="-9" type="curve" smooth="yes"/>
			<point x="300" y="-9"/>
			<point x="376" y="98"/>
			<point x="376" y="229" type="curve" smooth="yes"/>
			<point x="376" y="360"/>
			<point x="306" y="456"/>
			<point x="212" y="456" type="curve" smooth="yes"/>
			<point x="185" y="456"/>
			<point x="160" y="449"/>
			<point x="139" y="434" type="curve" smooth="yes"/>
			<point x="131" y="429"/>
			<point x="125" y="432"/>
			<point x="128" y="442" type="curve" smooth="yes"/>
			<point x="162" y="580"/>
			<point x="233" y="665"/>
			<point x="350" y="704" type="curve" smooth="yes"/>
			<point x="357" y="706"/>
			<point x="361" y="710"/>
			<point x="361" y="717" type="curve" smooth="yes"/>
			<point x="361" y="725"/>
			<point x="355" y="732"/>
			<point x="342" y="729" type="curve" smooth="yes"/>
			<point x="171" y="688"/>
			<point x="36" y="480"/>
			<point x="36" y="261" type="curve" smooth="yes"/>
			<point x="36" y="100"/>
			<point x="105" y="-9"/>
		</contour>
		<contour>
			<point x="204" y="18" type="curve" smooth="yes"/>
			<point x="136" y="18"/>
			<point x="102" y="84"/>
			<point x="102" y="218" type="curve" smooth="yes"/>
			<point x="102" y="358"/>
			<point x="138" y="431"/>
			<point x="208" y="431" type="curve" smooth="yes"/>
			<point x="274" y="431"/>
			<point x="304" y="366"/>
			<point x="304" y="224" type="curve" smooth="yes"/>
			<point x="304" y="84"/>
			<point x="272" y="18"/>
		</contour>
	</outline>
</glyph>
<glyph name="seven" format="2">
	<unicode hex="0037"/>
	<advance width="364"/>
	<outline>
		<contour>
			<point x="99" y="0" type="curve" smooth="yes"/>
			<point x="124" y="0" type="line"/>
			<point x="131" y="0"/>
			<point x="136" y="3"/>
			<point x="138" y="11" type="curve" smooth="yes"/>
			<point x="352" y="675" type="line"/>
			<point x="358" y="694"/>
			<point x="360" y="701"/>
			<point x="360" y="708" type="curve" smooth="yes"/>
			<point x="360" y="715"/>
			<point x="356" y="720"/>
			<point x="346" y="720" type="curve" smooth="yes"/>
			<point x="49" y="720" type="line"/>
			<point x="41" y="720"/>
			<point x="36" y="716"/>
			<point x="34" y="708" type="curve" smooth="yes"/>
			<point x="19" y="656" type="line"/>
			<point x="16" y="645"/>
			<point x="17" y="635"/>
			<point x="28" y="635" type="curve" smooth="yes"/>
			<point x="44" y="635"/>
			<point x="45" y="660"/>
			<point x="78" y="660" type="curve" smooth="yes"/>
			<point x="300" y="660" type="line"/>
			<point x="310" y="660"/>
			<point x="314" y="654"/>
			<point x="311" y="644" type="curve" smooth="yes"/>
			<point x="88" y="15" type="line"/>
			<point x="85" y="6"/>
			<point x="90" y="0"/>
		</contour>
	</outline>
</glyph>
<glyph name="equal" format="2">
	<unicode hex="003D"/>
	<advance width="532"/>
	<outline>
		<contour>
			<point x="70" y="454" type="curve" smooth="yes"/>
			<point x="461" y="454" type="line"/>
			<point x="467" y="454"/>
			<point x="471" y="458"/>
			<point x="471" y="464" type="curve" smooth="yes"/>
			<point x="471" y="478" type="line"/>
			<point x="471" y="484"/>
			<point x="467" y="488"/>
			<point x="461" y="488" type="curve" smooth="yes"/>
			<point x="70" y="488" type="line"/>
			<point x="64" y="488"/>
			<point x="60" y="484"/>
			<point x="60" y="478" type="curve" smooth="yes"/>
			<point x="60" y="464" type="line"/>
			<point x="60" y="458"/>
			<point x="64" y="454"/>
		</contour>
		<contour>
			<point x="70" y="254" type="curve" smooth="yes"/>
			<point x="461" y="254" type="line"/>
			<point x="467" y="254"/>
			<point x="471" y="258"/>
			<point x="471" y="264" type="curve" smooth="yes"/>
			<point x="471" y="278" type="line"/>
			<point x="471" y="284"/>
			<point x="467" y="288"/>
			<point x="461" y="288" type="curve" smooth="yes"/>
			<point x="70" y="288" type="line"/>
			<point x="64" y="288"/>
			<point x="60" y="284"/>
			<point x="60" y="278" type="curve" smooth="yes"/>
			<point x="60" y="264" type="line"/>
			<point x="60" y="258"/>
			<point x="64" y="254"/>
		</contour>
	</outline>
</glyph>
<glyph name="C" format="2">
	<unicode hex="0043"/>
	<advance width="480"/>
	<outline>
		<contour>
			<point x="286" y="-9" type="curve"/>
			<point x="350" y="-9"/>
			<point x="391" y="2"/>
			<point x="423" y="18" type="curve"/>
			<point x="432" y="23"/>
			<point x="436" y="28"/>
			<point x="436" y="39" type="curve"/>
			<point x="440" y="201" type="line"/>
			<point x="440" y="212"/>
			<point x="436" y="217"/>
			<point x="429" y="218" type="curve"/>
			<point x="421" y="219"/>
			<point x="415" y="214"/>
			<point x="413" y="205" type="curve"/>
			<point x="401" y="156" type="line"/>
			<point x="375" y="49"/>
			<point x="342" y="20"/>
			<point x="282" y="20" type="curve"/>
			<point x="198" y="20"/>
			<point x="118" y="139"/>
			<point x="118" y="364" type="curve"/>
			<point x="118" y="582"/>
			<point x="188" y="701"/>
			<point x="281" y="701" type="curve"/>
			<point x="331" y="701"/>
			<point x="367" y="667"/>
			<point x="395" y="563" type="curve"/>
			<point x="405" y="526" type="line"/>
			<point x="407" y="517"/>
			<point x="411" y="513"/>
			<point x="419" y="513" type="curve"/>
			<point x="427" y="513"/>
			<point x="431" y="519"/>
			<point x="431" y="530" type="curve"/>
			<point x="428" y="682" type="line"/>
			<point x="428" y="693"/>
			<point x="425" y="698"/>
			<point x="416" y="703" type="curve"/>
			<point x="384" y="719"/>
			<point x="343" y="730"/>
			<point x="289" y="730" type="curve"/>
			<point x="150" y="730"/>
			<point x="40" y="584"/>
			<point x="40" y="364" type="curve"/>
			<point x="40" y="137"/>
			<point x="138" y="-9"/>
		</contour>
	</outline>
</glyph>
<glyph name="F" format="2">
	<unicode hex="0046"/>
	<advance width="408"/>
	<outline>
		<contour>
			<point x="34" y="0" type="curve"/>
			<point x="237" y="0" type="line"/>
			<point x="247" y="0"/>
			<point x="252" y="4"/>
			<point x="252" y="12" type="curve"/>
			<point x="252" y="18"/>
			<point x="248" y="22"/>
			<point x="241" y="23" type="curve"/>
			<point x="194" y="30" type="line"/>
			<point x="166" y="34"/>
			<point x="160" y="43"/>
			<point x="160" y="71" type="curve"/>
			<point x="160" y="344" type="line"/>
			<point x="160" y="353"/>
			<point x="165" y="358"/>
			<point x="174" y="358" type="curve"/>
			<point x="208" y="358" type="line"/>
			<point x="238" y="358"/>
			<point x="253" y="347"/>
			<point x="263" y="301" type="curve"/>
			<point x="274" y="252" type="line"/>
			<point x="276" y="244"/>
			<point x="281" y="239"/>
			<point x="289" y="239" type="curve"/>
			<point x="296" y="239"/>
			<point x="301" y="245"/>
			<point x="301" y="256" type="curve"/>
			<point x="301" y="481" type="line"/>
			<point x="301" y="492"/>
			<point x="296" y="498"/>
			<point x="289" y="498" type="curve"/>
			<point x="281" y="498"/>
			<point x="276" y="493"/>
			<point x="274" y="485" type="curve"/>
			<point x="263" y="435" type="line"/>
			<point x="256" y="402"/>
			<point x="239" y="388"/>
			<point x="209" y="388" type="curve"/>
			<point x="174" y="388" type="line"/>
			<point x="165" y="388"/>
			<point x="160" y="393"/>
			<point x="160" y="402" type="curve"/>
			<point x="160" y="638" type="line"/>
			<point x="160" y="676"/>
			<point x="177" y="695"/>
			<point x="236" y="695" type="curve"/>
			<point x="282" y="695"/>
			<point x="341" y="663"/>
			<point x="357" y="560" type="curve"/>
			<point x="362" y="527" type="line"/>
			<point x="363" y="519"/>
			<point x="368" y="514"/>
			<point x="376" y="514" type="curve"/>
			<point x="384" y="514"/>
			<point x="390" y="520"/>
			<point x="389" y="531" type="curve"/>
			<point x="381" y="697" type="line"/>
			<point x="380" y="712"/>
			<point x="371" y="720"/>
			<point x="356" y="720" type="curve"/>
			<point x="34" y="720" type="line"/>
			<point x="24" y="720"/>
			<point x="19" y="716"/>
			<point x="19" y="709" type="curve"/>
			<point x="19" y="703"/>
			<point x="23" y="699"/>
			<point x="32" y="697" type="curve"/>
			<point x="55" y="693" type="line"/>
			<point x="83" y="688"/>
			<point x="89" y="682"/>
			<point x="89" y="654" type="curve"/>
			<point x="89" y="66" type="line"/>
			<point x="89" y="38"/>
			<point x="83" y="32"/>
			<point x="55" y="27" type="curve"/>
			<point x="32" y="23" type="line"/>
			<point x="23" y="21"/>
			<point x="19" y="17"/>
			<point x="19" y="11" type="curve"/>
			<point x="19" y="4"/>
			<point x="24" y="0"/>
		</contour>
	</outline>
</glyph>
<glyph name="G" format="2">
	<unicode hex="0047"/>
	<advance width="521"/>
	<outline>
		<contour>
			<point x="291" y="-9" type="curve"/>
			<point x="345" y="-9"/>
			<point x="386" y="2"/>
			<point x="418" y="18" type="curve"/>
			<point x="438" y="28"/>
			<point x="445" y="35"/>
			<point x="445" y="50" type="curve"/>
			<point x="445" y="321" type="line"/>
			<point x="445" y="349"/>
			<point x="446" y="359"/>
			<point x="475" y="363" type="curve"/>
			<point x="490" y="365" type="line"/>
			<point x="497" y="366"/>
			<point x="501" y="370"/>
			<point x="501" y="376" type="curve"/>
			<point x="501" y="384"/>
			<point x="496" y="388"/>
			<point x="486" y="388" type="curve"/>
			<point x="303" y="388" type="line"/>
			<point x="293" y="388"/>
			<point x="288" y="384"/>
			<point x="288" y="377" type="curve"/>
			<point x="288" y="371"/>
			<point x="292" y="366"/>
			<point x="301" y="365" type="curve"/>
			<point x="340" y="361" type="line"/>
			<point x="368" y="358"/>
			<point x="374" y="350"/>
			<point x="374" y="322" type="curve"/>
			<point x="374" y="103" type="line"/>
			<point x="374" y="38"/>
			<point x="346" y="18"/>
			<point x="291" y="18" type="curve"/>
			<point x="189" y="18"/>
			<point x="118" y="139"/>
			<point x="118" y="364" type="curve"/>
			<point x="118" y="582"/>
			<point x="188" y="701"/>
			<point x="286" y="701" type="curve"/>
			<point x="351" y="701"/>
			<point x="383" y="667"/>
			<point x="413" y="556" type="curve"/>
			<point x="421" y="526" type="line"/>
			<point x="423" y="517"/>
			<point x="427" y="513"/>
			<point x="435" y="513" type="curve"/>
			<point x="442" y="513"/>
			<point x="447" y="519"/>
			<point x="447" y="530" type="curve"/>
			<point x="444" y="682" type="line"/>
			<point x="444" y="693"/>
			<point x="440" y="698"/>
			<point x="431" y="703" type="curve"/>
			<point x="399" y="719"/>
			<point x="356" y="730"/>
			<point x="304" y="730" type="curve"/>
			<point x="150" y="730"/>
			<point x="40" y="584"/>
			<point x="40" y="364" type="curve"/>
			<point x="40" y="137"/>
			<point x="128" y="-9"/>
		</contour>
	</outline>
</glyph>
<glyph name="H" format="2">
	<unicode hex="0048"/>
	<advance width="546"/>
	<outline>
		<contour>
			<point x="34" y="0" type="curve" smooth="yes"/>
			<point x="217" y="0" type="line"/>
			<point x="227" y="0"/>
			<point x="232" y="4"/>
			<point x="232" y="12" type="curve" smooth="yes"/>
			<point x="232" y="18"/>
			<point x="228" y="22"/>
			<point x="221" y="23" type="curve" smooth="yes"/>
			<point x="194" y="27" type="line"/>
			<point x="166" y="31"/>
			<point x="160" y="39"/>
			<point x="160" y="67" type="curve" smooth="yes"/>
			<point x="160" y="344" type="line"/>
			<point x="160" y="353"/>
			<point x="165" y="358"/>
			<point x="174" y="358" type="curve" smooth="yes"/>
			<point x="372" y="358" type="line"/>
			<point x="381" y="358"/>
			<point x="386" y="353"/>
			<point x="386" y="344" type="curve" smooth="yes"/>
			<point x="386" y="67" type="line"/>
			<point x="386" y="39"/>
			<point x="380" y="31"/>
			<point x="352" y="27" type="curve" smooth="yes"/>
			<point x="325" y="23" type="line"/>
			<point x="318" y="22"/>
			<point x="314" y="18"/>
			<point x="314" y="12" type="curve" smooth="yes"/>
			<point x="314" y="4"/>
			<point x="319" y="0"/>
			<point x="329" y="0" type="curve" smooth="yes"/>
			<point x="512" y="0" type="line"/>
			<point x="522" y="0"/>
			<point x="527" y="4"/>
			<point x="527" y="11" type="curve" smooth="yes"/>
			<point x="527" y="17"/>
			<point x="523" y="21"/>
			<point x="514" y="23" type="curve" smooth="yes"/>
			<point x="491" y="27" type="line"/>
			<point x="463" y="32"/>
			<point x="457" y="38"/>
			<point x="457" y="66" type="curve" smooth="yes"/>
			<point x="457" y="654" type="line"/>
			<point x="457" y="682"/>
			<point x="463" y="688"/>
			<point x="491" y="693" type="curve" smooth="yes"/>
			<point x="514" y="697" type="line"/>
			<point x="523" y="699"/>
			<point x="527" y="703"/>
			<point x="527" y="709" type="curve" smooth="yes"/>
			<point x="527" y="716"/>
			<point x="522" y="720"/>
			<point x="512" y="720" type="curve" smooth="yes"/>
			<point x="329" y="720" type="line"/>
			<point x="319" y="720"/>
			<point x="314" y="716"/>
			<point x="314" y="708" type="curve" smooth="yes"/>
			<point x="314" y="702"/>
			<point x="318" y="698"/>
			<point x="325" y="697" type="curve" smooth="yes"/>
			<point x="352" y="693" type="line"/>
			<point x="380" y="689"/>
			<point x="386" y="681"/>
			<point x="386" y="653" type="curve" smooth="yes"/>
			<point x="386" y="402" type="line"/>
			<point x="386" y="393"/>
			<point x="381" y="388"/>
			<point x="372" y="388" type="curve" smooth="yes"/>
			<point x="174" y="388" type="line"/>
			<point x="165" y="388"/>
			<point x="160" y="393"/>
			<point x="160" y="402" type="curve" smooth="yes"/>
			<point x="160" y="653" type="line"/>
			<point x="160" y="681"/>
			<point x="166" y="689"/>
			<point x="194" y="693" type="curve" smooth="yes"/>
			<point x="221" y="697" type="line"/>
			<point x="228" y="698"/>
			<point x="232" y="702"/>
			<point x="232" y="708" type="curve" smooth="yes"/>
			<point x="232" y="716"/>
			<point x="227" y="720"/>
			<point x="217" y="720" type="curve" smooth="yes"/>
			<point x="34" y="720" type="line"/>
			<point x="24" y="720"/>
			<point x="19" y="716"/>
			<point x="19" y="709" type="curve" smooth="yes"/>
			<point x="19" y="703"/>
			<point x="23" y="699"/>
			<point x="32" y="697" type="curve" smooth="yes"/>
			<point x="55" y="693" type="line"/>
			<point x="83" y="688"/>
			<point x="89" y="682"/>
			<point x="89" y="654" type="curve" smooth="yes"/>
			<point x="89" y="66" type="line"/>
			<point x="89" y="38"/>
			<point x="83" y="32"/>
			<point x="55" y="27" type="curve" smooth="yes"/>
			<point x="32" y="23" type="line"/>
			<point x="23" y="21"/>
			<point x="19" y="17"/>
			<point x="19" y="11" type="curve" smooth="yes"/>
			<point x="19" y="4"/>
			<point x="24" y="0"/>
		</contour>
	</outline>
</glyph>
<glyph name="I" format="2">
	<unicode hex="0049"/>
	<advance width="249"/>
	<outline>
		<contour>
			<point x="24" y="0"/>
			<point x="34" y="0" type="curve"/>
			<point x="216" y="0" type="curve"/>
			<point x="226" y="0"/>
			<point x="230" y="5"/>
			<point x="230" y="12" type="curve"/>
			<point x="230" y="18"/>
			<point x="227.09410263317403" y="22.484316227804328"/>
			<point x="218" y="24" type="curve"/>
			<point x="194" y="28" type="curve"/>
			<point x="165.94407130150324" y="32.67598811641613"/>
			<point x="160" y="38"/>
			<point x="160" y="66" type="curve"/>
			<point x="160" y="654" type="curve"/>
			<point x="160" y="682"/>
			<point x="165.94407130150324" y="689.3240118835839"/>
			<point x="194" y="694" type="curve"/>
			<point x="218" y="698" type="curve"/>
			<point x="227.09410263317403" y="699.5156837721956"/>
			<point x="230" y="704"/>
			<point x="230" y="710" type="curve"/>
			<point x="230" y="717"/>
			<point x="226" y="720"/>
			<point x="216" y="720" type="curve"/>
			<point x="34" y="720" type="curve"/>
			<point x="24" y="720"/>
			<point x="20" y="717"/>
			<point x="20" y="710" type="curve"/>
			<point x="20" y="704"/>
			<point x="22.905897366825975" y="699.5156837721956"/>
			<point x="32" y="698" type="curve"/>
			<point x="56" y="694" type="curve"/>
			<point x="84.05592869849676" y="689.3240118835839"/>
			<point x="90" y="682"/>
			<point x="90" y="654" type="curve"/>
			<point x="90" y="66" type="curve"/>
			<point x="90" y="38"/>
			<point x="84.05592869849677" y="32.67598811641613"/>
			<point x="56" y="28" type="curve"/>
			<point x="32" y="24" type="curve"/>
			<point x="22.905897366825975" y="22.484316227804328"/>
			<point x="20" y="18"/>
			<point x="20" y="12" type="curve"/>
			<point x="20" y="5"/>
		</contour>
	</outline>
</glyph>
<glyph name="M" format="2">
  <advance width="665"/>
  <unicode hex="004D"/>
  <guideline x="96" y="370" angle="177.9834"/>
  <guideline x="571" y="360" angle="1.9481"/>
  <outline>
    <contour>
      <point x="315" y="10" type="curve" smooth="yes"/>
      <point x="320" y="10"/>
      <point x="327" y="13"/>
      <point x="330" y="26" type="curve" smooth="yes"/>
      <point x="482" y="640" type="line" smooth="yes"/>
      <point x="484" y="648"/>
      <point x="493" y="647"/>
      <point x="493" y="638" type="curve" smooth="yes"/>
      <point x="510" y="66" type="line" smooth="yes"/>
      <point x="511" y="38"/>
      <point x="504" y="32"/>
      <point x="476" y="27" type="curve" smooth="yes"/>
      <point x="453" y="23" type="line" smooth="yes"/>
      <point x="444" y="21"/>
      <point x="440" y="17"/>
      <point x="440" y="11" type="curve" smooth="yes"/>
      <point x="440" y="4"/>
      <point x="445" y="0"/>
      <point x="455" y="0" type="curve" smooth="yes"/>
      <point x="636" y="0" type="line" smooth="yes"/>
      <point x="646" y="0"/>
      <point x="651" y="4"/>
      <point x="651" y="11" type="curve" smooth="yes"/>
      <point x="651" y="17"/>
      <point x="647" y="21"/>
      <point x="638" y="23" type="curve" smooth="yes"/>
      <point x="615" y="27" type="line" smooth="yes"/>
      <point x="587" y="32"/>
      <point x="582" y="38"/>
      <point x="581" y="66" type="curve" smooth="yes"/>
      <point x="561" y="654" type="line" smooth="yes"/>
      <point x="560" y="682"/>
      <point x="567" y="688"/>
      <point x="595" y="693" type="curve" smooth="yes"/>
      <point x="618" y="697" type="line" smooth="yes"/>
      <point x="627" y="699"/>
      <point x="631" y="703"/>
      <point x="631" y="709" type="curve" smooth="yes"/>
      <point x="631" y="716"/>
      <point x="626" y="720"/>
      <point x="616" y="720" type="curve" smooth="yes"/>
      <point x="498" y="720" type="line" smooth="yes"/>
      <point x="479" y="720"/>
      <point x="470" y="712"/>
      <point x="466" y="695" type="curve" smooth="yes"/>
      <point x="340" y="191" type="line" smooth="yes"/>
      <point x="338" y="182"/>
      <point x="330" y="182"/>
      <point x="328" y="191" type="curve" smooth="yes"/>
      <point x="207" y="690" type="line" smooth="yes"/>
      <point x="202" y="711"/>
      <point x="190" y="720"/>
      <point x="169" y="720" type="curve" smooth="yes"/>
      <point x="49" y="720" type="line" smooth="yes"/>
      <point x="39" y="720"/>
      <point x="34" y="716"/>
      <point x="34" y="709" type="curve" smooth="yes"/>
      <point x="34" y="703"/>
      <point x="38" y="699"/>
      <point x="47" y="697" type="curve" smooth="yes"/>
      <point x="70" y="693" type="line" smooth="yes"/>
      <point x="100" y="688"/>
      <point x="107" y="682"/>
      <point x="106" y="654" type="curve" smooth="yes"/>
      <point x="86" y="86" type="line" smooth="yes"/>
      <point x="85" y="48"/>
      <point x="75" y="30"/>
      <point x="40" y="25" type="curve" smooth="yes"/>
      <point x="27" y="23" type="line" smooth="yes"/>
      <point x="18" y="22"/>
      <point x="14" y="17"/>
      <point x="14" y="11" type="curve" smooth="yes"/>
      <point x="14" y="4"/>
      <point x="19" y="0"/>
      <point x="29" y="0" type="curve" smooth="yes"/>
      <point x="172" y="0" type="line" smooth="yes"/>
      <point x="182" y="0"/>
      <point x="187" y="4"/>
      <point x="187" y="11" type="curve" smooth="yes"/>
      <point x="187" y="17"/>
      <point x="183" y="22"/>
      <point x="174" y="23" type="curve" smooth="yes"/>
      <point x="161" y="25" type="line" smooth="yes"/>
      <point x="128" y="30"/>
      <point x="116" y="48"/>
      <point x="117" y="86" type="curve" smooth="yes"/>
      <point x="137" y="638" type="line" smooth="yes"/>
      <point x="137" y="647"/>
      <point x="146" y="648"/>
      <point x="148" y="639" type="curve" smooth="yes"/>
      <point x="299" y="26" type="line" smooth="yes"/>
      <point x="302" y="13"/>
      <point x="309" y="10"/>
    </contour>
  </outline>
</glyph>
<glyph name="O" format="2">
	<unicode hex="004F"/>
	<advance width="540"/>
	<outline>
		<contour>
			<point x="270" y="-9" type="curve" smooth="yes"/>
			<point x="398" y="-9"/>
			<point x="500" y="153"/>
			<point x="500" y="361" type="curve" smooth="yes"/>
			<point x="500" y="568"/>
			<point x="398" y="730"/>
			<point x="270" y="730" type="curve" smooth="yes"/>
			<point x="141" y="730"/>
			<point x="40" y="568"/>
			<point x="40" y="361" type="curve" smooth="yes"/>
			<point x="40" y="153"/>
			<point x="141" y="-9"/>
		</contour>
		<contour>
			<point x="270" y="18" type="curve" smooth="yes"/>
			<point x="176" y="18"/>
			<point x="119" y="130"/>
			<point x="119" y="361" type="curve" smooth="yes"/>
			<point x="119" y="591"/>
			<point x="176" y="703"/>
			<point x="270" y="703" type="curve" smooth="yes"/>
			<point x="364" y="703"/>
			<point x="421" y="591"/>
			<point x="421" y="361" type="curve" smooth="yes"/>
			<point x="421" y="130"/>
			<point x="364" y="18"/>
		</contour>
	</outline>
</glyph>
<glyph name="Q" format="2">
	<unicode hex="0051"/>
	<advance width="540"/>
	<outline>
		<contour>
			<point x="434" y="-215" type="curve"/>
			<point x="480" y="-215"/>
			<point x="511" y="-202"/>
			<point x="532" y="-186" type="curve"/>
			<point x="538" y="-181"/>
			<point x="540" y="-177"/>
			<point x="540" y="-172" type="curve"/>
			<point x="540" y="-161"/>
			<point x="529" y="-158"/>
			<point x="518" y="-165" type="curve"/>
			<point x="497" y="-178"/>
			<point x="479" y="-184"/>
			<point x="457" y="-184" type="curve"/>
			<point x="411" y="-184"/>
			<point x="372" y="-152"/>
			<point x="348" y="-74" type="curve"/>
			<point x="340" y="-46"/>
			<point x="328" y="-29"/>
			<point x="311" y="-17" type="curve"/>
			<point x="304" y="-12"/>
			<point x="304" y="-5"/>
			<point x="312" y="-3" type="curve"/>
			<point x="420" y="27"/>
			<point x="500" y="176"/>
			<point x="500" y="361" type="curve"/>
			<point x="500" y="568"/>
			<point x="398" y="730"/>
			<point x="270" y="730" type="curve"/>
			<point x="141" y="730"/>
			<point x="40" y="568"/>
			<point x="40" y="361" type="curve"/>
			<point x="40" y="180"/>
			<point x="117" y="33"/>
			<point x="222" y="-1" type="curve"/>
			<point x="256" y="-15"/>
			<point x="268" y="-28"/>
			<point x="275" y="-71" type="curve"/>
			<point x="294" y="-185"/>
			<point x="374" y="-215"/>
		</contour>
		<contour>
			<point x="270" y="18" type="curve"/>
			<point x="176" y="18"/>
			<point x="119" y="130"/>
			<point x="119" y="361" type="curve"/>
			<point x="119" y="591"/>
			<point x="176" y="703"/>
			<point x="270" y="703" type="curve"/>
			<point x="364" y="703"/>
			<point x="421" y="591"/>
			<point x="421" y="361" type="curve"/>
			<point x="421" y="130"/>
			<point x="364" y="18"/>
		</contour>
	</outline>
</glyph>
<glyph name="U" format="2">
	<unicode hex="0055"/>
	<advance width="536"/>
	<outline>
		<contour>
			<point x="275" y="-9" type="curve" smooth="yes"/>
			<point x="383" y="-9"/>
			<point x="454" y="71"/>
			<point x="454" y="192" type="curve" smooth="yes"/>
			<point x="454" y="634" type="line"/>
			<point x="454" y="671"/>
			<point x="464" y="689"/>
			<point x="488" y="693" type="curve" smooth="yes"/>
			<point x="511" y="697" type="line"/>
			<point x="520" y="699"/>
			<point x="524" y="702"/>
			<point x="524" y="709" type="curve" smooth="yes"/>
			<point x="524" y="716"/>
			<point x="519" y="720"/>
			<point x="509" y="720" type="curve" smooth="yes"/>
			<point x="365" y="720" type="line"/>
			<point x="355" y="720"/>
			<point x="350" y="716"/>
			<point x="350" y="708" type="curve" smooth="yes"/>
			<point x="350" y="702"/>
			<point x="354" y="698"/>
			<point x="361" y="697" type="curve" smooth="yes"/>
			<point x="388" y="693" type="line"/>
			<point x="412" y="689"/>
			<point x="422" y="671"/>
			<point x="422" y="633" type="curve" smooth="yes"/>
			<point x="422" y="191" type="line"/>
			<point x="422" y="90"/>
			<point x="374" y="31"/>
			<point x="292" y="31" type="curve" smooth="yes"/>
			<point x="211" y="31"/>
			<point x="163" y="89"/>
			<point x="163" y="191" type="curve" smooth="yes"/>
			<point x="163" y="653" type="line"/>
			<point x="163" y="681"/>
			<point x="170" y="689"/>
			<point x="197" y="693" type="curve" smooth="yes"/>
			<point x="224" y="697" type="line"/>
			<point x="231" y="698"/>
			<point x="235" y="702"/>
			<point x="235" y="708" type="curve" smooth="yes"/>
			<point x="235" y="716"/>
			<point x="230" y="720"/>
			<point x="220" y="720" type="curve" smooth="yes"/>
			<point x="37" y="720" type="line"/>
			<point x="27" y="720"/>
			<point x="22" y="716"/>
			<point x="22" y="709" type="curve" smooth="yes"/>
			<point x="22" y="702"/>
			<point x="26" y="699"/>
			<point x="35" y="697" type="curve" smooth="yes"/>
			<point x="58" y="693" type="line"/>
			<point x="86" y="688"/>
			<point x="92" y="682"/>
			<point x="92" y="654" type="curve" smooth="yes"/>
			<point x="92" y="192" type="line"/>
			<point x="92" y="73"/>
			<point x="167" y="-9"/>
		</contour>
	</outline>
</glyph>
<glyph name="W" format="2">
	<unicode hex="0057"/>
	<advance width="652"/>
	<outline>
		<contour>
			<point x="432" y="-10" type="curve" smooth="yes"/>
			<point x="437" y="-10"/>
			<point x="443" y="-7"/>
			<point x="446" y="6" type="curve" smooth="yes"/>
			<point x="601" y="631" type="line"/>
			<point x="612" y="677"/>
			<point x="623" y="694"/>
			<point x="641" y="696" type="curve" smooth="yes"/>
			<point x="652" y="697" type="line"/>
			<point x="663" y="698"/>
			<point x="669" y="702"/>
			<point x="669" y="709" type="curve" smooth="yes"/>
			<point x="669" y="716"/>
			<point x="662" y="720"/>
			<point x="652" y="720" type="curve" smooth="yes"/>
			<point x="540" y="720" type="line"/>
			<point x="531" y="720"/>
			<point x="526" y="716"/>
			<point x="526" y="710" type="curve" smooth="yes"/>
			<point x="526" y="703"/>
			<point x="530" y="699"/>
			<point x="541" y="697" type="curve" smooth="yes"/>
			<point x="552" y="695" type="line"/>
			<point x="575" y="691"/>
			<point x="579" y="670"/>
			<point x="570" y="632" type="curve" smooth="yes"/>
			<point x="455" y="171" type="line"/>
			<point x="453" y="161"/>
			<point x="445" y="162"/>
			<point x="443" y="171" type="curve" smooth="yes"/>
			<point x="398" y="359" type="line"/>
			<point x="386" y="411"/>
			<point x="386" y="450"/>
			<point x="401" y="500" type="curve" smooth="yes"/>
			<point x="439" y="631" type="line"/>
			<point x="452" y="676"/>
			<point x="461" y="694"/>
			<point x="479" y="696" type="curve" smooth="yes"/>
			<point x="490" y="697" type="line"/>
			<point x="501" y="698"/>
			<point x="507" y="702"/>
			<point x="507" y="709" type="curve" smooth="yes"/>
			<point x="507" y="716"/>
			<point x="500" y="720"/>
			<point x="490" y="720" type="curve" smooth="yes"/>
			<point x="395" y="720" type="line"/>
			<point x="386" y="720"/>
			<point x="381" y="715"/>
			<point x="381" y="709" type="curve" smooth="yes"/>
			<point x="381" y="702"/>
			<point x="385" y="699"/>
			<point x="396" y="697" type="curve" smooth="yes"/>
			<point x="407" y="695" type="line"/>
			<point x="419" y="693"/>
			<point x="425" y="682"/>
			<point x="410" y="632" type="curve" smooth="yes"/>
			<point x="374" y="510" type="line"/>
			<point x="371" y="501"/>
			<point x="363" y="501"/>
			<point x="361" y="510" type="curve" smooth="yes"/>
			<point x="327" y="653" type="line"/>
			<point x="320" y="682"/>
			<point x="323" y="692"/>
			<point x="340" y="695" type="curve" smooth="yes"/>
			<point x="351" y="697" type="line"/>
			<point x="361" y="699"/>
			<point x="366" y="703"/>
			<point x="366" y="709" type="curve" smooth="yes"/>
			<point x="366" y="716"/>
			<point x="361" y="720"/>
			<point x="352" y="720" type="curve" smooth="yes"/>
			<point x="215" y="720" type="line"/>
			<point x="206" y="720"/>
			<point x="200" y="717"/>
			<point x="200" y="710" type="curve" smooth="yes"/>
			<point x="200" y="703"/>
			<point x="205" y="699"/>
			<point x="214" y="697" type="curve" smooth="yes"/>
			<point x="229" y="694" type="line"/>
			<point x="244" y="691"/>
			<point x="251" y="677"/>
			<point x="260" y="640" type="curve" smooth="yes"/>
			<point x="302" y="469" type="line"/>
			<point x="315" y="417"/>
			<point x="315" y="379"/>
			<point x="301" y="328" type="curve" smooth="yes"/>
			<point x="256" y="165" type="line"/>
			<point x="253" y="156"/>
			<point x="245" y="156"/>
			<point x="243" y="165" type="curve" smooth="yes"/>
			<point x="125" y="653" type="line"/>
			<point x="118" y="682"/>
			<point x="123" y="691"/>
			<point x="146" y="695" type="curve" smooth="yes"/>
			<point x="157" y="697" type="line"/>
			<point x="167" y="699"/>
			<point x="172" y="703"/>
			<point x="172" y="709" type="curve" smooth="yes"/>
			<point x="172" y="716"/>
			<point x="167" y="720"/>
			<point x="158" y="720" type="curve" smooth="yes"/>
			<point x="-3" y="720" type="line"/>
			<point x="-12" y="720"/>
			<point x="-18" y="717"/>
			<point x="-18" y="710" type="curve" smooth="yes"/>
			<point x="-18" y="703"/>
			<point x="-13" y="699"/>
			<point x="-4" y="697" type="curve" smooth="yes"/>
			<point x="11" y="694" type="line"/>
			<point x="37" y="689"/>
			<point x="46" y="677"/>
			<point x="55" y="640" type="curve" smooth="yes"/>
			<point x="213" y="6" type="line"/>
			<point x="216" y="-7"/>
			<point x="222" y="-10"/>
			<point x="228" y="-10" type="curve" smooth="yes"/>
			<point x="233" y="-10"/>
			<point x="238" y="-7"/>
			<point x="242" y="6" type="curve" smooth="yes"/>
			<point x="328" y="316" type="line"/>
			<point x="331" y="325"/>
			<point x="339" y="326"/>
			<point x="341" y="316" type="curve" smooth="yes"/>
			<point x="418" y="6" type="line"/>
			<point x="421" y="-7"/>
			<point x="426" y="-10"/>
		</contour>
	</outline>
</glyph>
<glyph name="Z" format="2">
	<unicode hex="005A"/>
	<advance width="427"/>
	<outline>
		<contour>
			<point x="40" y="0" type="curve"/>
			<point x="364" y="0" type="line"/>
			<point x="379" y="0"/>
			<point x="388" y="8"/>
			<point x="389" y="23" type="curve"/>
			<point x="401" y="211" type="line"/>
			<point x="402" y="222"/>
			<point x="396" y="228"/>
			<point x="389" y="228" type="curve"/>
			<point x="381" y="228"/>
			<point x="376" y="223"/>
			<point x="374" y="215" type="curve"/>
			<point x="361" y="148" type="line"/>
			<point x="341" y="45"/>
			<point x="283" y="30"/>
			<point x="227" y="30" type="curve"/>
			<point x="116" y="30" type="line"/>
			<point x="106" y="30"/>
			<point x="101" y="36"/>
			<point x="105" y="46" type="curve"/>
			<point x="394" y="691" type="line"/>
			<point x="402" y="709"/>
			<point x="394" y="720"/>
			<point x="375" y="720" type="curve"/>
			<point x="154" y="720" type="line"/>
			<point x="90" y="720"/>
			<point x="87" y="740"/>
			<point x="74" y="740" type="curve"/>
			<point x="64" y="740"/>
			<point x="58" y="732"/>
			<point x="57" y="717" type="curve"/>
			<point x="39" y="531" type="line"/>
			<point x="38" y="520"/>
			<point x="44" y="514"/>
			<point x="52" y="514" type="curve"/>
			<point x="60" y="514"/>
			<point x="64" y="519"/>
			<point x="66" y="527" type="curve"/>
			<point x="81" y="577" type="line"/>
			<point x="107" y="665"/>
			<point x="149" y="690"/>
			<point x="199" y="690" type="curve"/>
			<point x="299" y="690" type="line"/>
			<point x="309" y="690"/>
			<point x="314" y="684"/>
			<point x="310" y="674" type="curve"/>
			<point x="21" y="29" type="line"/>
			<point x="13" y="11"/>
			<point x="21" y="0"/>
		</contour>
	</outline>
</glyph>
<glyph name="asciicircum" format="2">
	<unicode hex="005E"/>
	<advance width="433"/>
	<outline>
		<contour>
			<point x="86" y="491" type="curve"/>
			<point x="243" y="695" type="line"/>
			<point x="190" y="695" type="line"/>
			<point x="347" y="491" type="line"/>
			<point x="357" y="477"/>
			<point x="381" y="481"/>
			<point x="367" y="507" type="curve"/>
			<point x="251" y="729" type="line"/>
			<point x="246" y="738"/>
			<point x="236" y="740"/>
			<point x="226" y="740" type="curve"/>
			<point x="207" y="740" type="line"/>
			<point x="197" y="740"/>
			<point x="187" y="738"/>
			<point x="182" y="729" type="curve"/>
			<point x="66" y="507" type="line"/>
			<point x="52" y="481"/>
			<point x="76" y="477"/>
		</contour>
	</outline>
</glyph>
<glyph name="a" format="2">
  <advance width="399"/>
  <unicode hex="0061"/>
  <anchor x="200" y="0" name="bottom"/>
  <anchor x="344" y="0" name="ogonek"/>
  <anchor x="200" y="510" name="top"/>
  <outline>
    <contour>
      <point x="120" y="-9" type="curve" smooth="yes"/>
      <point x="169" y="-9"/>
      <point x="199" y="14"/>
      <point x="231" y="58" type="curve" smooth="yes"/>
      <point x="240" y="71"/>
      <point x="252" y="70"/>
      <point x="254" y="57" type="curve" smooth="yes"/>
      <point x="260" y="21"/>
      <point x="279" y="-9"/>
      <point x="311" y="-9" type="curve" smooth="yes"/>
      <point x="354" y="-9"/>
      <point x="394" y="32"/>
      <point x="394" y="129" type="curve" smooth="yes"/>
      <point x="394" y="141"/>
      <point x="389" y="146"/>
      <point x="382" y="146" type="curve" smooth="yes"/>
      <point x="375" y="146"/>
      <point x="369" y="141"/>
      <point x="369" y="130" type="curve" smooth="yes"/>
      <point x="369" y="74"/>
      <point x="351" y="53"/>
      <point x="334" y="53" type="curve" smooth="yes"/>
      <point x="321" y="53"/>
      <point x="313" y="66"/>
      <point x="313" y="95" type="curve" smooth="yes"/>
      <point x="313" y="401" type="line" smooth="yes"/>
      <point x="313" y="479"/>
      <point x="278" y="516"/>
      <point x="214" y="516" type="curve" smooth="yes"/>
      <point x="129" y="516"/>
      <point x="31" y="433"/>
      <point x="31" y="355" type="curve" smooth="yes"/>
      <point x="31" y="337"/>
      <point x="42" y="327"/>
      <point x="59" y="327" type="curve" smooth="yes"/>
      <point x="81" y="327"/>
      <point x="107" y="345"/>
      <point x="114" y="388" type="curve" smooth="yes"/>
      <point x="126" y="458"/>
      <point x="155" y="486"/>
      <point x="189" y="486" type="curve" smooth="yes"/>
      <point x="223" y="486"/>
      <point x="245" y="461"/>
      <point x="245" y="397" type="curve" smooth="yes"/>
      <point x="245" y="306" type="line" smooth="yes"/>
      <point x="245" y="298"/>
      <point x="241" y="292"/>
      <point x="232" y="289" type="curve" smooth="yes"/>
      <point x="111" y="250"/>
      <point x="24" y="173"/>
      <point x="24" y="88" type="curve" smooth="yes"/>
      <point x="24" y="29"/>
      <point x="64" y="-9"/>
    </contour>
    <contour>
      <point x="147" y="37" type="curve" smooth="yes"/>
      <point x="114" y="37"/>
      <point x="96" y="61"/>
      <point x="96" y="106" type="curve" smooth="yes"/>
      <point x="96" y="178"/>
      <point x="143" y="229"/>
      <point x="224" y="259" type="curve" smooth="yes"/>
      <point x="237" y="264"/>
      <point x="245" y="259"/>
      <point x="245" y="248" type="curve" smooth="yes"/>
      <point x="245" y="175" type="line" smooth="yes"/>
      <point x="245" y="97"/>
      <point x="198" y="37"/>
    </contour>
  </outline>
</glyph>
<glyph name="e" format="2">
	<unicode hex="0065"/>
	<advance width="355"/>
	<outline>
		<contour>
			<point x="213" y="302" type="curve"/>
			<point x="112" y="302" type="curve"/>
			<point x="102" y="302"/>
			<point x="96" y="308"/>
			<point x="97" y="318" type="curve"/>
			<point x="107" y="428"/>
			<point x="145" y="491"/>
			<point x="197" y="491" type="curve"/>
			<point x="239" y="491"/>
			<point x="261" y="439"/>
			<point x="261" y="352" type="curve"/>
			<point x="261" y="317"/>
			<point x="246" y="302"/>
		</contour>
		<contour>
			<point x="96" y="-9"/>
			<point x="192" y="-9" type="curve"/>
			<point x="258" y="-9"/>
			<point x="306" y="32"/>
			<point x="328" y="151" type="curve"/>
			<point x="330" y="163"/>
			<point x="327" y="171"/>
			<point x="319" y="171" type="curve"/>
			<point x="312" y="171"/>
			<point x="308" y="167"/>
			<point x="306" y="160" type="curve"/>
			<point x="286" y="74"/>
			<point x="256" y="42"/>
			<point x="205" y="42" type="curve"/>
			<point x="141" y="42"/>
			<point x="95" y="113"/>
			<point x="95" y="254" type="curve"/>
			<point x="95" y="270"/>
			<point x="102" y="277"/>
			<point x="115" y="277" type="curve"/>
			<point x="305" y="277" type="curve"/>
			<point x="322" y="277"/>
			<point x="330" y="289"/>
			<point x="330" y="310" type="curve"/>
			<point x="330" y="455"/>
			<point x="276" y="516"/>
			<point x="198" y="516" type="curve"/>
			<point x="99" y="516"/>
			<point x="23" y="406"/>
			<point x="23" y="249" type="curve"/>
			<point x="23" y="94"/>
		</contour>
	</outline>
</glyph>
<glyph name="g" format="2">
	<unicode hex="0067"/>
	<advance width="402"/>
	<outline>
		<contour>
			<point x="178" y="-215" type="curve" smooth="yes"/>
			<point x="293" y="-215"/>
			<point x="385" y="-144"/>
			<point x="385" y="-46" type="curve" smooth="yes"/>
			<point x="385" y="36"/>
			<point x="325" y="87"/>
			<point x="229" y="87" type="curve" smooth="yes"/>
			<point x="143" y="87" type="line"/>
			<point x="114" y="87"/>
			<point x="105" y="111"/>
			<point x="123" y="132" type="curve" smooth="yes"/>
			<point x="140" y="151" type="line"/>
			<point x="157" y="170"/>
			<point x="173" y="180"/>
			<point x="197" y="180" type="curve" smooth="yes"/>
			<point x="281" y="180"/>
			<point x="345" y="252"/>
			<point x="345" y="348" type="curve" smooth="yes"/>
			<point x="345" y="401"/>
			<point x="326" y="446"/>
			<point x="294" y="477" type="curve" smooth="yes"/>
			<point x="285" y="486"/>
			<point x="279" y="495"/>
			<point x="283" y="508" type="curve" smooth="yes"/>
			<point x="287" y="525"/>
			<point x="298" y="534"/>
			<point x="313" y="534" type="curve" smooth="yes"/>
			<point x="335" y="534"/>
			<point x="333" y="514"/>
			<point x="359" y="514" type="curve" smooth="yes"/>
			<point x="379" y="514"/>
			<point x="394" y="528"/>
			<point x="394" y="551" type="curve" smooth="yes"/>
			<point x="394" y="578"/>
			<point x="372" y="598"/>
			<point x="342" y="598" type="curve" smooth="yes"/>
			<point x="310" y="598"/>
			<point x="272" y="567"/>
			<point x="260" y="517" type="curve" smooth="yes"/>
			<point x="258" y="508"/>
			<point x="252" y="505"/>
			<point x="243" y="508" type="curve" smooth="yes"/>
			<point x="229" y="513"/>
			<point x="213" y="516"/>
			<point x="197" y="516" type="curve" smooth="yes"/>
			<point x="113" y="516"/>
			<point x="47" y="444"/>
			<point x="47" y="352" type="curve" smooth="yes"/>
			<point x="47" y="288"/>
			<point x="81" y="226"/>
			<point x="136" y="200" type="curve" smooth="yes"/>
			<point x="144" y="196"/>
			<point x="144" y="189"/>
			<point x="137" y="183" type="curve" smooth="yes"/>
			<point x="65" y="121" type="line"/>
			<point x="33" y="94"/>
			<point x="43" y="59"/>
			<point x="91" y="39" type="curve" smooth="yes"/>
			<point x="107" y="32"/>
			<point x="107" y="18"/>
			<point x="91" y="4" type="curve" smooth="yes"/>
			<point x="23" y="-56"/>
			<point x="14" y="-76"/>
			<point x="14" y="-111" type="curve" smooth="yes"/>
			<point x="14" y="-168"/>
			<point x="77" y="-215"/>
		</contour>
		<contour>
			<point x="190" y="-193" type="curve" smooth="yes"/>
			<point x="116" y="-193"/>
			<point x="74" y="-154"/>
			<point x="74" y="-95" type="curve" smooth="yes"/>
			<point x="74" y="-67"/>
			<point x="80" y="-45"/>
			<point x="121" y="-1" type="curve" smooth="yes"/>
			<point x="140" y="19"/>
			<point x="156" y="26"/>
			<point x="197" y="26" type="curve" smooth="yes"/>
			<point x="220" y="26" type="line"/>
			<point x="284" y="26"/>
			<point x="321" y="-8"/>
			<point x="321" y="-68" type="curve" smooth="yes"/>
			<point x="321" y="-141"/>
			<point x="262" y="-193"/>
		</contour>
		<contour>
			<point x="196" y="205" type="curve" smooth="yes"/>
			<point x="148" y="205"/>
			<point x="118" y="261"/>
			<point x="118" y="350" type="curve" smooth="yes"/>
			<point x="118" y="437"/>
			<point x="149" y="494"/>
			<point x="196" y="494" type="curve" smooth="yes"/>
			<point x="243" y="494"/>
			<point x="274" y="437"/>
			<point x="274" y="350" type="curve" smooth="yes"/>
			<point x="274" y="261"/>
			<point x="244" y="205"/>
		</contour>
	</outline>
</glyph>
<glyph name="h" format="2">
	<unicode hex="0068"/>
	<advance width="470"/>
	<outline>
		<contour>
			<point x="27" y="0" type="curve" smooth="yes"/>
			<point x="202" y="0" type="line"/>
			<point x="209" y="0"/>
			<point x="214" y="4"/>
			<point x="214" y="11" type="curve" smooth="yes"/>
			<point x="214" y="18"/>
			<point x="210" y="22"/>
			<point x="203" y="23" type="curve" smooth="yes"/>
			<point x="176" y="26" type="line"/>
			<point x="148" y="29"/>
			<point x="142" y="39"/>
			<point x="142" y="67" type="curve" smooth="yes"/>
			<point x="142" y="335" type="line"/>
			<point x="142" y="408"/>
			<point x="191" y="470"/>
			<point x="255" y="470" type="curve" smooth="yes"/>
			<point x="299" y="470"/>
			<point x="324" y="446"/>
			<point x="324" y="381" type="curve" smooth="yes"/>
			<point x="324" y="67" type="line"/>
			<point x="324" y="39"/>
			<point x="318" y="29"/>
			<point x="290" y="25" type="curve" smooth="yes"/>
			<point x="276" y="23" type="line"/>
			<point x="269" y="22"/>
			<point x="265" y="17"/>
			<point x="265" y="11" type="curve" smooth="yes"/>
			<point x="265" y="5"/>
			<point x="269" y="0"/>
			<point x="279" y="0" type="curve" smooth="yes"/>
			<point x="447" y="0" type="line"/>
			<point x="454" y="0"/>
			<point x="459" y="4"/>
			<point x="459" y="11" type="curve" smooth="yes"/>
			<point x="459" y="18"/>
			<point x="455" y="22"/>
			<point x="448" y="23" type="curve" smooth="yes"/>
			<point x="426" y="26" type="line"/>
			<point x="398" y="30"/>
			<point x="392" y="39"/>
			<point x="392" y="67" type="curve" smooth="yes"/>
			<point x="392" y="392" type="line"/>
			<point x="392" y="473"/>
			<point x="353" y="516"/>
			<point x="291" y="516" type="curve" smooth="yes"/>
			<point x="248" y="516"/>
			<point x="213" y="501"/>
			<point x="163" y="455" type="curve" smooth="yes"/>
			<point x="151" y="444"/>
			<point x="142" y="447"/>
			<point x="142" y="459" type="curve" smooth="yes"/>
			<point x="142" y="724" type="line"/>
			<point x="142" y="735"/>
			<point x="138" y="740"/>
			<point x="131" y="740" type="curve" smooth="yes"/>
			<point x="125" y="740"/>
			<point x="118" y="737"/>
			<point x="107" y="730" type="curve" smooth="yes"/>
			<point x="90" y="719"/>
			<point x="65" y="708"/>
			<point x="28" y="700" type="curve" smooth="yes"/>
			<point x="21" y="699"/>
			<point x="17" y="694"/>
			<point x="17" y="688" type="curve" smooth="yes"/>
			<point x="17" y="682"/>
			<point x="21" y="677"/>
			<point x="28" y="676" type="curve" smooth="yes"/>
			<point x="49" y="673" type="line"/>
			<point x="68" y="670"/>
			<point x="74" y="664"/>
			<point x="74" y="640" type="curve" smooth="yes"/>
			<point x="74" y="67" type="line"/>
			<point x="74" y="39"/>
			<point x="68" y="29"/>
			<point x="40" y="25" type="curve" smooth="yes"/>
			<point x="26" y="23" type="line"/>
			<point x="19" y="22"/>
			<point x="15" y="17"/>
			<point x="15" y="11" type="curve" smooth="yes"/>
			<point x="15" y="5"/>
			<point x="20" y="0"/>
		</contour>
	</outline>
</glyph>
<glyph name="i" format="2">
	<unicode hex="0069"/>
	<advance width="223"/>
	<outline>
		<contour>
			<point x="20" y="0"/>
			<point x="30" y="0" type="curve"/>
			<point x="197" y="0" type="curve"/>
			<point x="207" y="0"/>
			<point x="212" y="4"/>
			<point x="212" y="12" type="curve"/>
			<point x="212" y="18"/>
			<point x="208" y="22"/>
			<point x="201" y="23" type="curve"/>
			<point x="176" y="26" type="curve"/>
			<point x="153" y="29"/>
			<point x="147" y="39"/>
			<point x="147" y="67" type="curve"/>
			<point x="147" y="501" type="curve"/>
			<point x="147" y="509"/>
			<point x="144" y="513"/>
			<point x="138" y="513" type="curve"/>
			<point x="133" y="513"/>
			<point x="129" y="510"/>
			<point x="123" y="504" type="curve"/>
			<point x="99" y="482"/>
			<point x="77" y="467"/>
			<point x="36" y="461" type="curve"/>
			<point x="25" y="459"/>
			<point x="20" y="456"/>
			<point x="20" y="450" type="curve"/>
			<point x="20" y="444"/>
			<point x="23" y="440"/>
			<point x="33" y="439" type="curve"/>
			<point x="54" y="436" type="curve"/>
			<point x="73" y="433"/>
			<point x="79" y="427"/>
			<point x="79" y="403" type="curve"/>
			<point x="79" y="67" type="curve"/>
			<point x="79" y="39"/>
			<point x="73" y="30"/>
			<point x="40" y="25" type="curve"/>
			<point x="28" y="23" type="curve"/>
			<point x="19" y="21"/>
			<point x="15" y="17"/>
			<point x="15" y="11" type="curve"/>
			<point x="15" y="4"/>
		</contour>
		<contour>
			<point x="86" y="605"/>
			<point x="114" y="605" type="curve"/>
			<point x="142" y="605"/>
			<point x="163" y="627"/>
			<point x="163" y="658" type="curve"/>
			<point x="163" y="689"/>
			<point x="142" y="710"/>
			<point x="114" y="710" type="curve"/>
			<point x="86" y="710"/>
			<point x="64" y="689"/>
			<point x="64" y="658" type="curve"/>
			<point x="64" y="627"/>
		</contour>
	</outline>
</glyph>
<glyph name="l" format="2">
	<unicode hex="006C"/>
	<advance width="220"/>
	<outline>
		<contour>
			<point x="20" y="0" type="curve" smooth="yes"/>
			<point x="198" y="0" type="line"/>
			<point x="205" y="0"/>
			<point x="210" y="4"/>
			<point x="210" y="11" type="curve" smooth="yes"/>
			<point x="210" y="18"/>
			<point x="206" y="22"/>
			<point x="199" y="23" type="curve" smooth="yes"/>
			<point x="176" y="26" type="line"/>
			<point x="148" y="30"/>
			<point x="142" y="39"/>
			<point x="142" y="67" type="curve" smooth="yes"/>
			<point x="142" y="724" type="line"/>
			<point x="142" y="735"/>
			<point x="138" y="740"/>
			<point x="131" y="740" type="curve" smooth="yes"/>
			<point x="125" y="740"/>
			<point x="118" y="737"/>
			<point x="107" y="730" type="curve" smooth="yes"/>
			<point x="90" y="719"/>
			<point x="63" y="708"/>
			<point x="26" y="700" type="curve" smooth="yes"/>
			<point x="19" y="699"/>
			<point x="15" y="694"/>
			<point x="15" y="688" type="curve" smooth="yes"/>
			<point x="15" y="682"/>
			<point x="19" y="677"/>
			<point x="26" y="676" type="curve" smooth="yes"/>
			<point x="49" y="673" type="line"/>
			<point x="68" y="671"/>
			<point x="74" y="664"/>
			<point x="74" y="640" type="curve" smooth="yes"/>
			<point x="74" y="67" type="line"/>
			<point x="74" y="39"/>
			<point x="61" y="29"/>
			<point x="33" y="25" type="curve" smooth="yes"/>
			<point x="19" y="23" type="line"/>
			<point x="12" y="22"/>
			<point x="8" y="17"/>
			<point x="8" y="11" type="curve" smooth="yes"/>
			<point x="8" y="5"/>
			<point x="13" y="0"/>
		</contour>
	</outline>
</glyph>
<glyph name="n" format="2">
	<unicode hex="006E"/>
	<advance width="470"/>
	<outline>
		<contour>
			<point x="20" y="0"/>
			<point x="30" y="0" type="curve"/>
			<point x="199" y="0" type="line"/>
			<point x="209" y="0"/>
			<point x="214" y="4"/>
			<point x="214" y="12" type="curve"/>
			<point x="214" y="18"/>
			<point x="210" y="22"/>
			<point x="203" y="23" type="curve"/>
			<point x="176" y="26" type="line"/>
			<point x="148" y="29"/>
			<point x="142" y="39"/>
			<point x="142" y="67" type="curve"/>
			<point x="142" y="335" type="line"/>
			<point x="142" y="408"/>
			<point x="191" y="470"/>
			<point x="255" y="470" type="curve"/>
			<point x="299" y="470"/>
			<point x="324" y="446"/>
			<point x="324" y="381" type="curve"/>
			<point x="324" y="67" type="line"/>
			<point x="324" y="39"/>
			<point x="318" y="29"/>
			<point x="290" y="25" type="curve"/>
			<point x="276" y="23" type="line"/>
			<point x="269" y="22"/>
			<point x="265" y="17"/>
			<point x="265" y="11" type="curve"/>
			<point x="265" y="5"/>
			<point x="269" y="0"/>
			<point x="279" y="0" type="curve"/>
			<point x="447" y="0" type="line"/>
			<point x="454" y="0"/>
			<point x="459" y="4"/>
			<point x="459" y="11" type="curve"/>
			<point x="459" y="18"/>
			<point x="455" y="22"/>
			<point x="448" y="23" type="curve"/>
			<point x="426" y="26" type="line"/>
			<point x="398" y="30"/>
			<point x="392" y="39"/>
			<point x="392" y="67" type="curve"/>
			<point x="392" y="392" type="line"/>
			<point x="392" y="473"/>
			<point x="353" y="516"/>
			<point x="293" y="516" type="curve"/>
			<point x="248" y="516"/>
			<point x="211" y="501"/>
			<point x="158" y="450" type="curve"/>
			<point x="147" y="439"/>
			<point x="137" y="444"/>
			<point x="137" y="456" type="curve"/>
			<point x="137" y="501" type="line"/>
			<point x="137" y="509"/>
			<point x="134" y="513"/>
			<point x="128" y="513" type="curve"/>
			<point x="123" y="513"/>
			<point x="119" y="510"/>
			<point x="113" y="504" type="curve"/>
			<point x="89" y="482"/>
			<point x="72" y="467"/>
			<point x="31" y="461" type="curve"/>
			<point x="20" y="459"/>
			<point x="15" y="456"/>
			<point x="15" y="450" type="curve"/>
			<point x="15" y="444"/>
			<point x="18" y="440"/>
			<point x="28" y="439" type="curve"/>
			<point x="49" y="436" type="line"/>
			<point x="68" y="433"/>
			<point x="74" y="427"/>
			<point x="74" y="403" type="curve"/>
			<point x="74" y="67" type="line"/>
			<point x="74" y="39"/>
			<point x="68" y="30"/>
			<point x="40" y="25" type="curve"/>
			<point x="28" y="23" type="line"/>
			<point x="19" y="21"/>
			<point x="15" y="17"/>
			<point x="15" y="11" type="curve"/>
			<point x="15" y="4"/>
		</contour>
	</outline>
</glyph>
<glyph name="s" format="2">
	<unicode hex="0073"/>
	<advance width="308"/>
	<outline>
		<contour>
			<point x="100" y="-9"/>
			<point x="131" y="-9" type="curve" smooth="yes"/>
			<point x="220" y="-9"/>
			<point x="280" y="46"/>
			<point x="280" y="132" type="curve" smooth="yes"/>
			<point x="280" y="197"/>
			<point x="245" y="252"/>
			<point x="179" y="300" type="curve" smooth="yes"/>
			<point x="105" y="351"/>
			<point x="82" y="378"/>
			<point x="82" y="425" type="curve" smooth="yes"/>
			<point x="82" y="461"/>
			<point x="107" y="488"/>
			<point x="142" y="488" type="curve" smooth="yes"/>
			<point x="180" y="488"/>
			<point x="204" y="459"/>
			<point x="231" y="372" type="curve" smooth="yes"/>
			<point x="234" y="363"/>
			<point x="237" y="356"/>
			<point x="246" y="356" type="curve" smooth="yes"/>
			<point x="253" y="356"/>
			<point x="258" y="361"/>
			<point x="258" y="371" type="curve" smooth="yes"/>
			<point x="256" y="481" type="line"/>
			<point x="256" y="489"/>
			<point x="253" y="493"/>
			<point x="247" y="497" type="curve" smooth="yes"/>
			<point x="227" y="510"/>
			<point x="201" y="516"/>
			<point x="174" y="516" type="curve" smooth="yes"/>
			<point x="86" y="516"/>
			<point x="28" y="465"/>
			<point x="28" y="389" type="curve" smooth="yes"/>
			<point x="28" y="333"/>
			<point x="59" y="288"/>
			<point x="128" y="241" type="curve" smooth="yes"/>
			<point x="197" y="191"/>
			<point x="224" y="155"/>
			<point x="224" y="102" type="curve" smooth="yes"/>
			<point x="224" y="49"/>
			<point x="195" y="17"/>
			<point x="157" y="17" type="curve" smooth="yes"/>
			<point x="110" y="17"/>
			<point x="78" y="45"/>
			<point x="56" y="140" type="curve" smooth="yes"/>
			<point x="53" y="151"/>
			<point x="49" y="156"/>
			<point x="41" y="156" type="curve" smooth="yes"/>
			<point x="33" y="156"/>
			<point x="28" y="149"/>
			<point x="28" y="139" type="curve" smooth="yes"/>
			<point x="31" y="27" type="line"/>
			<point x="31" y="19"/>
			<point x="33" y="14"/>
			<point x="40" y="10" type="curve" smooth="yes"/>
			<point x="61" y="-1"/>
		</contour>
	</outline>
</glyph>
<glyph name="u" format="2">
  <advance width="454"/>
  <unicode hex="0075"/>
  <anchor x="226" y="0" name="bottom"/>
  <anchor x="336" y="0" name="ogonek"/>
  <anchor x="216" y="510" name="top"/>
  <anchor x="436" y="510" name="topright"/>
  <outline>
    <contour>
      <point x="171" y="-9" type="curve" smooth="yes"/>
      <point x="218" y="-9"/>
      <point x="251" y="9"/>
      <point x="300" y="58" type="curve" smooth="yes"/>
      <point x="308" y="66"/>
      <point x="317" y="63"/>
      <point x="317" y="53" type="curve" smooth="yes"/>
      <point x="317" y="7" type="line" smooth="yes"/>
      <point x="317" y="-1"/>
      <point x="320" y="-5"/>
      <point x="326" y="-5" type="curve" smooth="yes"/>
      <point x="331" y="-5"/>
      <point x="335" y="-2"/>
      <point x="341" y="4" type="curve" smooth="yes"/>
      <point x="360" y="26"/>
      <point x="382" y="43"/>
      <point x="423" y="49" type="curve" smooth="yes"/>
      <point x="434" y="51"/>
      <point x="439" y="54"/>
      <point x="439" y="61" type="curve" smooth="yes"/>
      <point x="439" y="66"/>
      <point x="436" y="70"/>
      <point x="426" y="71" type="curve" smooth="yes"/>
      <point x="405" y="74" type="line" smooth="yes"/>
      <point x="386" y="77"/>
      <point x="380" y="83"/>
      <point x="380" y="107" type="curve" smooth="yes"/>
      <point x="380" y="495" type="line" smooth="yes"/>
      <point x="380" y="504"/>
      <point x="374" y="510"/>
      <point x="365" y="510" type="curve" smooth="yes"/>
      <point x="272" y="510" type="line" smooth="yes"/>
      <point x="259" y="510"/>
      <point x="253" y="504"/>
      <point x="253" y="497" type="curve" smooth="yes"/>
      <point x="253" y="490"/>
      <point x="259" y="485"/>
      <point x="270" y="484" type="curve" smooth="yes"/>
      <point x="287" y="482" type="line" smooth="yes"/>
      <point x="306" y="480"/>
      <point x="312" y="473"/>
      <point x="312" y="449" type="curve" smooth="yes"/>
      <point x="312" y="166" type="line" smooth="yes"/>
      <point x="312" y="96"/>
      <point x="265" y="37"/>
      <point x="204" y="37" type="curve" smooth="yes"/>
      <point x="162" y="37"/>
      <point x="138" y="60"/>
      <point x="138" y="122" type="curve" smooth="yes"/>
      <point x="138" y="495" type="line" smooth="yes"/>
      <point x="138" y="504"/>
      <point x="132" y="510"/>
      <point x="123" y="510" type="curve" smooth="yes"/>
      <point x="30" y="510" type="line" smooth="yes"/>
      <point x="17" y="510"/>
      <point x="11" y="504"/>
      <point x="11" y="497" type="curve" smooth="yes"/>
      <point x="11" y="490"/>
      <point x="17" y="485"/>
      <point x="28" y="484" type="curve" smooth="yes"/>
      <point x="45" y="482" type="line" smooth="yes"/>
      <point x="64" y="480"/>
      <point x="70" y="473"/>
      <point x="70" y="449" type="curve" smooth="yes"/>
      <point x="70" y="101" type="line" smooth="yes"/>
      <point x="70" y="21"/>
      <point x="121" y="-9"/>
    </contour>
  </outline>
</glyph>
<glyph name="bar" format="2">
	<unicode hex="007C"/>
	<advance width="252"/>
	<outline>
		<contour>
			<point x="118" y="-130" type="curve"/>
			<point x="134" y="-130" type="line"/>
			<point x="139" y="-130"/>
			<point x="142" y="-127"/>
			<point x="142" y="-122" type="curve"/>
			<point x="142" y="782" type="line"/>
			<point x="142" y="787"/>
			<point x="139" y="790"/>
			<point x="134" y="790" type="curve"/>
			<point x="118" y="790" type="line"/>
			<point x="113" y="790"/>
			<point x="110" y="787"/>
			<point x="110" y="782" type="curve"/>
			<point x="110" y="-122" type="line"/>
			<point x="110" y="-127"/>
			<point x="113" y="-130"/>
		</contour>
	</outline>
</glyph>
<glyph name="exclamdown" format="2">
	<unicode hex="00A1"/>
	<advance width="237"/>
	<outline>
		<contour>
			<point x="121" y="-215" type="curve"/>
			<point x="150" y="-215"/>
			<point x="167" y="-192"/>
			<point x="167" y="-159" type="curve"/>
			<point x="167" y="-104"/>
			<point x="135" y="141"/>
			<point x="133" y="316" type="curve"/>
			<point x="133" y="326"/>
			<point x="129" y="332"/>
			<point x="121" y="332" type="curve"/>
			<point x="114" y="332"/>
			<point x="109" y="326"/>
			<point x="109" y="316" type="curve"/>
			<point x="107" y="141"/>
			<point x="75" y="-104"/>
			<point x="75" y="-159" type="curve"/>
			<point x="75" y="-192"/>
			<point x="92" y="-215"/>
		</contour>
		<component base="period" yScale="-1" xOffset="14" yOffset="511"/>
	</outline>
</glyph>
<glyph name="cent" format="2">
  <advance width="339"/>
  <unicode hex="00A2"/>
  <anchor x="182" y="0" name="bottom"/>
  <anchor x="208" y="510" name="top"/>
  <outline>
    <contour>
      <point x="187" y="-109" type="curve" smooth="yes"/>
      <point x="195" y="-109" type="line" smooth="yes"/>
      <point x="200" y="-109"/>
      <point x="203" y="-106"/>
      <point x="203" y="-101" type="curve" smooth="yes"/>
      <point x="203" y="608" type="line" smooth="yes"/>
      <point x="203" y="613"/>
      <point x="200" y="616"/>
      <point x="195" y="616" type="curve" smooth="yes"/>
      <point x="187" y="616" type="line" smooth="yes"/>
      <point x="182" y="616"/>
      <point x="179" y="613"/>
      <point x="179" y="608" type="curve" smooth="yes"/>
      <point x="179" y="-101" type="line" smooth="yes"/>
      <point x="179" y="-106"/>
      <point x="182" y="-109"/>
    </contour>
    <component base="c"/>
  </outline>
</glyph>
<glyph name="yen" format="2">
	<unicode hex="00A5"/>
	<advance width="512"/>
	<outline>
		<contour>
			<point x="62" y="284" type="curve" smooth="yes"/>
			<point x="453" y="284" type="line"/>
			<point x="459" y="284"/>
			<point x="463" y="288"/>
			<point x="463" y="294" type="curve" smooth="yes"/>
			<point x="463" y="308" type="line"/>
			<point x="463" y="314"/>
			<point x="459" y="318"/>
			<point x="453" y="318" type="curve" smooth="yes"/>
			<point x="62" y="318" type="line"/>
			<point x="56" y="318"/>
			<point x="52" y="314"/>
			<point x="52" y="308" type="curve" smooth="yes"/>
			<point x="52" y="294" type="line"/>
			<point x="52" y="288"/>
			<point x="56" y="284"/>
		</contour>
		<contour>
			<point x="224" y="404" type="line"/>
			<point x="211" y="438" type="line"/>
			<point x="62" y="438" type="line"/>
			<point x="56" y="438"/>
			<point x="52" y="434"/>
			<point x="52" y="428" type="curve" smooth="yes"/>
			<point x="52" y="414" type="line"/>
			<point x="52" y="408"/>
			<point x="56" y="404"/>
			<point x="62" y="404" type="curve" smooth="yes"/>
		</contour>
		<contour>
			<point x="324" y="438" type="line"/>
			<point x="309" y="404" type="line"/>
			<point x="453" y="404" type="line"/>
			<point x="459" y="404"/>
			<point x="463" y="408"/>
			<point x="463" y="414" type="curve" smooth="yes"/>
			<point x="463" y="428" type="line"/>
			<point x="463" y="434"/>
			<point x="459" y="438"/>
			<point x="453" y="438" type="curve" smooth="yes"/>
		</contour>
		<component base="Y" xOffset="18"/>
	</outline>
</glyph>
<glyph name="ordfeminine" format="2">
	<unicode hex="00AA"/>
	<advance width="364"/>
	<outline>
		<contour>
			<point x="111" y="363" type="curve"/>
			<point x="150" y="363"/>
			<point x="174" y="379"/>
			<point x="200" y="410" type="curve"/>
			<point x="207" y="419"/>
			<point x="217" y="418"/>
			<point x="218" y="409" type="curve"/>
			<point x="223" y="384"/>
			<point x="238" y="363"/>
			<point x="264" y="363" type="curve"/>
			<point x="298" y="363"/>
			<point x="330" y="391"/>
			<point x="330" y="459" type="curve"/>
			<point x="330" y="468"/>
			<point x="326" y="475"/>
			<point x="318" y="475" type="curve"/>
			<point x="310" y="475"/>
			<point x="306" y="468"/>
			<point x="306" y="460" type="curve"/>
			<point x="306" y="421"/>
			<point x="296" y="406"/>
			<point x="282" y="406" type="curve"/>
			<point x="272" y="406"/>
			<point x="265" y="415"/>
			<point x="265" y="436" type="curve"/>
			<point x="265" y="650" type="line"/>
			<point x="265" y="704"/>
			<point x="237" y="730"/>
			<point x="186" y="730" type="curve"/>
			<point x="118" y="730"/>
			<point x="40" y="672"/>
			<point x="40" y="618" type="curve"/>
			<point x="40" y="605"/>
			<point x="51" y="596"/>
			<point x="64" y="596" type="curve"/>
			<point x="87" y="596"/>
			<point x="99" y="611"/>
			<point x="106" y="641" type="curve"/>
			<point x="116" y="685"/>
			<point x="139" y="704"/>
			<point x="166" y="704" type="curve"/>
			<point x="193" y="704"/>
			<point x="211" y="687"/>
			<point x="211" y="642" type="curve"/>
			<point x="211" y="588" type="line"/>
			<point x="211" y="583"/>
			<point x="208" y="578"/>
			<point x="201" y="576" type="curve"/>
			<point x="104" y="549"/>
			<point x="34" y="495"/>
			<point x="34" y="431" type="curve"/>
			<point x="34" y="389"/>
			<point x="66" y="363"/>
		</contour>
		<contour>
			<point x="133" y="401" type="curve"/>
			<point x="106" y="401"/>
			<point x="92" y="418"/>
			<point x="92" y="446" type="curve"/>
			<point x="92" y="494"/>
			<point x="129" y="529"/>
			<point x="194" y="550" type="curve"/>
			<point x="205" y="554"/>
			<point x="211" y="550"/>
			<point x="211" y="543" type="curve"/>
			<point x="211" y="498" type="line"/>
			<point x="211" y="443"/>
			<point x="173" y="401"/>
		</contour>
	</outline>
</glyph>
<glyph name="registered" format="2">
  <advance width="830"/>
  <unicode hex="00AE"/>
  <outline>
    <contour>
      <point x="415" y="-15" type="curve" smooth="yes"/>
      <point x="622" y="-15"/>
      <point x="790" y="153"/>
      <point x="790" y="360" type="curve" smooth="yes"/>
      <point x="790" y="567"/>
      <point x="622" y="735"/>
      <point x="415" y="735" type="curve" smooth="yes"/>
      <point x="208" y="735"/>
      <point x="40" y="567"/>
      <point x="40" y="360" type="curve" smooth="yes"/>
      <point x="40" y="153"/>
      <point x="208" y="-15"/>
    </contour>
    <contour>
      <point x="415" y="23" type="curve" smooth="yes"/>
      <point x="230" y="23"/>
      <point x="80" y="175"/>
      <point x="80" y="360" type="curve" smooth="yes"/>
      <point x="80" y="545"/>
      <point x="230" y="697"/>
      <point x="415" y="697" type="curve" smooth="yes"/>
      <point x="600" y="697"/>
      <point x="750" y="545"/>
      <point x="750" y="360" type="curve" smooth="yes"/>
      <point x="750" y="175"/>
      <point x="600" y="23"/>
    </contour>
    <contour>
      <point x="554" y="144" type="curve" smooth="yes"/>
      <point x="582" y="144"/>
      <point x="605" y="155"/>
      <point x="605" y="172" type="curve" smooth="yes"/>
      <point x="605" y="180"/>
      <point x="598" y="184"/>
      <point x="590" y="179" type="curve" smooth="yes"/>
      <point x="582" y="174"/>
      <point x="575" y="171"/>
      <point x="568" y="171" type="curve" smooth="yes"/>
      <point x="547" y="171"/>
      <point x="535" y="182"/>
      <point x="524" y="224" type="curve" smooth="yes"/>
      <point x="508" y="284" type="line" smooth="yes"/>
      <point x="498" y="320"/>
      <point x="484" y="341"/>
      <point x="455" y="352" type="curve" smooth="yes"/>
      <point x="448" y="355"/>
      <point x="448" y="358"/>
      <point x="455" y="360" type="curve" smooth="yes"/>
      <point x="514" y="377"/>
      <point x="554" y="420"/>
      <point x="554" y="471" type="curve" smooth="yes"/>
      <point x="554" y="533"/>
      <point x="496" y="578"/>
      <point x="414" y="578" type="curve" smooth="yes"/>
      <point x="269" y="578" type="line" smooth="yes"/>
      <point x="261" y="578"/>
      <point x="256" y="573"/>
      <point x="256" y="568" type="curve" smooth="yes"/>
      <point x="256" y="563"/>
      <point x="259" y="559"/>
      <point x="268" y="558" type="curve" smooth="yes"/>
      <point x="280" y="556" type="line" smooth="yes"/>
      <point x="300" y="553"/>
      <point x="305" y="549"/>
      <point x="305" y="532" type="curve" smooth="yes"/>
      <point x="305" y="194" type="line" smooth="yes"/>
      <point x="305" y="178"/>
      <point x="300" y="174"/>
      <point x="280" y="171" type="curve" smooth="yes"/>
      <point x="265" y="169" type="line" smooth="yes"/>
      <point x="259" y="168"/>
      <point x="256" y="163"/>
      <point x="256" y="159" type="curve" smooth="yes"/>
      <point x="256" y="154"/>
      <point x="259" y="149"/>
      <point x="266" y="149" type="curve" smooth="yes"/>
      <point x="407" y="149" type="line" smooth="yes"/>
      <point x="414" y="149"/>
      <point x="418" y="154"/>
      <point x="418" y="159" type="curve" smooth="yes"/>
      <point x="418" y="163"/>
      <point x="415" y="169"/>
      <point x="405" y="170" type="curve" smooth="yes"/>
      <point x="384" y="173" type="line" smooth="yes"/>
      <point x="368" y="175"/>
      <point x="364" y="180"/>
      <point x="364" y="197" type="curve" smooth="yes"/>
      <point x="364" y="340" type="line" smooth="yes"/>
      <point x="364" y="349"/>
      <point x="372" y="355"/>
      <point x="385" y="355" type="curve" smooth="yes"/>
      <point x="422" y="355"/>
      <point x="435" y="340"/>
      <point x="451" y="278" type="curve" smooth="yes"/>
      <point x="468" y="212" type="line" smooth="yes"/>
      <point x="480" y="167"/>
      <point x="504" y="144"/>
    </contour>
    <contour>
      <point x="410" y="374" type="curve" smooth="yes"/>
      <point x="379" y="374"/>
      <point x="364" y="384"/>
      <point x="364" y="407" type="curve" smooth="yes"/>
      <point x="364" y="533" type="line" smooth="yes"/>
      <point x="364" y="550"/>
      <point x="377" y="556"/>
      <point x="408" y="556" type="curve" smooth="yes"/>
      <point x="453" y="556"/>
      <point x="493" y="522"/>
      <point x="493" y="463" type="curve" smooth="yes"/>
      <point x="493" y="409"/>
      <point x="452" y="374"/>
    </contour>
  </outline>
</glyph>
<glyph name="ordmasculine" format="2">
	<unicode hex="00BA"/>
	<advance width="368"/>
	<outline>
		<contour>
			<point x="184" y="363" type="curve"/>
			<point x="266" y="363"/>
			<point x="328" y="443"/>
			<point x="328" y="547" type="curve"/>
			<point x="328" y="650"/>
			<point x="265" y="730"/>
			<point x="184" y="730" type="curve"/>
			<point x="104" y="730"/>
			<point x="40" y="650"/>
			<point x="40" y="547" type="curve"/>
			<point x="40" y="443"/>
			<point x="103" y="363"/>
		</contour>
		<contour>
			<point x="184" y="387" type="curve"/>
			<point x="128" y="387"/>
			<point x="101" y="441"/>
			<point x="101" y="547" type="curve"/>
			<point x="101" y="652"/>
			<point x="128" y="706"/>
			<point x="184" y="706" type="curve"/>
			<point x="240" y="706"/>
			<point x="268" y="652"/>
			<point x="268" y="547" type="curve"/>
			<point x="268" y="441"/>
			<point x="241" y="387"/>
		</contour>
	</outline>
</glyph>
<glyph name="Eth" format="2">
	<unicode hex="00D0"/>
	<advance width="530"/>
	<outline>
		<contour>
			<point x="29" y="358" type="curve"/>
			<point x="284" y="358" type="line"/>
			<point x="290" y="358"/>
			<point x="294" y="362"/>
			<point x="294" y="368" type="curve"/>
			<point x="294" y="376" type="line"/>
			<point x="294" y="382"/>
			<point x="290" y="386"/>
			<point x="284" y="386" type="curve"/>
			<point x="29" y="386" type="line"/>
			<point x="23" y="386"/>
			<point x="19" y="382"/>
			<point x="19" y="376" type="curve"/>
			<point x="19" y="368" type="line"/>
			<point x="19" y="362"/>
			<point x="23" y="358"/>
		</contour>
		<component base="D"/>
	</outline>
</glyph>
<glyph name="multiply" format="2">
	<unicode hex="00D7"/>
	<advance width="531"/>
	<outline>
		<contour>
			<point x="99" y="194" type="line"/>
			<point x="103" y="190"/>
			<point x="109" y="190"/>
			<point x="113" y="194" type="curve"/>
			<point x="443" y="524" type="line"/>
			<point x="447" y="528"/>
			<point x="447" y="534"/>
			<point x="443" y="538" type="curve"/>
			<point x="433" y="548" type="line"/>
			<point x="429" y="553"/>
			<point x="423" y="553"/>
			<point x="419" y="548" type="curve"/>
			<point x="89" y="218" type="line"/>
			<point x="84" y="214"/>
			<point x="84" y="208"/>
			<point x="89" y="204" type="curve"/>
		</contour>
		<contour>
			<point x="418" y="194" type="line"/>
			<point x="422" y="190"/>
			<point x="428" y="190"/>
			<point x="432" y="194" type="curve"/>
			<point x="442" y="204" type="line"/>
			<point x="447" y="208"/>
			<point x="447" y="214"/>
			<point x="442" y="218" type="curve"/>
			<point x="112" y="548" type="line"/>
			<point x="108" y="553"/>
			<point x="102" y="553"/>
			<point x="98" y="548" type="curve"/>
			<point x="88" y="538" type="line"/>
			<point x="84" y="534"/>
			<point x="84" y="528"/>
			<point x="88" y="524" type="curve"/>
		</contour>
	</outline>
</glyph>
<glyph name="eth" format="2">
	<unicode hex="00F0"/>
	<advance width="404"/>
	<outline>
		<contour>
			<point x="198" y="-9" type="curve" smooth="yes"/>
			<point x="299" y="-9"/>
			<point x="368" y="100"/>
			<point x="368" y="261" type="curve" smooth="yes"/>
			<point x="368" y="480"/>
			<point x="233" y="709"/>
			<point x="62" y="750" type="curve" smooth="yes"/>
			<point x="49" y="753"/>
			<point x="43" y="746"/>
			<point x="43" y="738" type="curve" smooth="yes"/>
			<point x="43" y="731"/>
			<point x="47" y="727"/>
			<point x="54" y="725" type="curve" smooth="yes"/>
			<point x="171" y="686"/>
			<point x="242" y="580"/>
			<point x="276" y="442" type="curve" smooth="yes"/>
			<point x="279" y="432"/>
			<point x="273" y="429"/>
			<point x="265" y="434" type="curve" smooth="yes"/>
			<point x="244" y="449"/>
			<point x="219" y="456"/>
			<point x="192" y="456" type="curve" smooth="yes"/>
			<point x="98" y="456"/>
			<point x="28" y="360"/>
			<point x="28" y="229" type="curve" smooth="yes"/>
			<point x="28" y="98"/>
			<point x="104" y="-9"/>
		</contour>
		<contour>
			<point x="200" y="18" type="curve" smooth="yes"/>
			<point x="132" y="18"/>
			<point x="100" y="84"/>
			<point x="100" y="224" type="curve" smooth="yes"/>
			<point x="100" y="366"/>
			<point x="130" y="431"/>
			<point x="196" y="431" type="curve" smooth="yes"/>
			<point x="266" y="431"/>
			<point x="302" y="358"/>
			<point x="302" y="218" type="curve" smooth="yes"/>
			<point x="302" y="84"/>
			<point x="268" y="18"/>
		</contour>
	</outline>
</glyph>
<glyph name="oslash" format="2">
	<unicode hex="00F8"/>
	<advance width="408"/>
	<outline>
		<contour>
			<point x="72" y="-50" type="curve"/>
			<point x="79" y="-50" type="line"/>
			<point x="84" y="-50"/>
			<point x="88" y="-48"/>
			<point x="90" y="-42" type="curve"/>
			<point x="342" y="548" type="line"/>
			<point x="345" y="555"/>
			<point x="341" y="560"/>
			<point x="334" y="560" type="curve"/>
			<point x="327" y="560" type="line"/>
			<point x="322" y="560"/>
			<point x="318" y="558"/>
			<point x="316" y="552" type="curve"/>
			<point x="64" y="-38" type="line"/>
			<point x="61" y="-45"/>
			<point x="65" y="-50"/>
		</contour>
		<component base="o"/>
	</outline>
</glyph>
<glyph name="hbar" format="2">
	<unicode hex="0127"/>
	<advance width="470"/>
	<outline>
		<contour>
			<point x="18" y="578" type="curve" smooth="yes"/>
			<point x="293" y="578" type="line"/>
			<point x="299" y="578"/>
			<point x="303" y="582"/>
			<point x="303" y="588" type="curve" smooth="yes"/>
			<point x="303" y="596" type="line"/>
			<point x="303" y="602"/>
			<point x="299" y="606"/>
			<point x="293" y="606" type="curve" smooth="yes"/>
			<point x="18" y="606" type="line"/>
			<point x="12" y="606"/>
			<point x="8" y="602"/>
			<point x="8" y="596" type="curve" smooth="yes"/>
			<point x="8" y="588" type="line"/>
			<point x="8" y="582"/>
			<point x="12" y="578"/>
		</contour>
		<component base="h"/>
	</outline>
</glyph>
<glyph name="OE" format="2">
	<unicode hex="0152"/>
	<advance width="752"/>
	<outline>
		<contour>
			<point x="274" y="-9" type="curve" smooth="yes"/>
			<point x="314" y="-9"/>
			<point x="344" y="0"/>
			<point x="389" y="0" type="curve" smooth="yes"/>
			<point x="685" y="0" type="line"/>
			<point x="700" y="0"/>
			<point x="709" y="8"/>
			<point x="710" y="23" type="curve" smooth="yes"/>
			<point x="720" y="201" type="line"/>
			<point x="721" y="212"/>
			<point x="715" y="218"/>
			<point x="708" y="218" type="curve" smooth="yes"/>
			<point x="700" y="218"/>
			<point x="695" y="213"/>
			<point x="693" y="205" type="curve" smooth="yes"/>
			<point x="681" y="146" type="line"/>
			<point x="662" y="53"/>
			<point x="613" y="25"/>
			<point x="546" y="25" type="curve" smooth="yes"/>
			<point x="481" y="25"/>
			<point x="460" y="45"/>
			<point x="460" y="93" type="curve" smooth="yes"/>
			<point x="460" y="344" type="line"/>
			<point x="460" y="353"/>
			<point x="465" y="358"/>
			<point x="474" y="358" type="curve" smooth="yes"/>
			<point x="523" y="358" type="line"/>
			<point x="553" y="358"/>
			<point x="569" y="347"/>
			<point x="578" y="301" type="curve" smooth="yes"/>
			<point x="588" y="252" type="line"/>
			<point x="590" y="244"/>
			<point x="597" y="238"/>
			<point x="605" y="239" type="curve" smooth="yes"/>
			<point x="612" y="240"/>
			<point x="616" y="245"/>
			<point x="616" y="256" type="curve" smooth="yes"/>
			<point x="616" y="481" type="line"/>
			<point x="616" y="492"/>
			<point x="612" y="497"/>
			<point x="605" y="498" type="curve" smooth="yes"/>
			<point x="597" y="499"/>
			<point x="590" y="493"/>
			<point x="588" y="485" type="curve" smooth="yes"/>
			<point x="578" y="435" type="line"/>
			<point x="571" y="402"/>
			<point x="554" y="388"/>
			<point x="524" y="388" type="curve" smooth="yes"/>
			<point x="474" y="388" type="line"/>
			<point x="465" y="388"/>
			<point x="460" y="393"/>
			<point x="460" y="402" type="curve" smooth="yes"/>
			<point x="460" y="643" type="line"/>
			<point x="460" y="681"/>
			<point x="477" y="695"/>
			<point x="531" y="695" type="curve" smooth="yes"/>
			<point x="611" y="695"/>
			<point x="655" y="654"/>
			<point x="670" y="564" type="curve" smooth="yes"/>
			<point x="676" y="527" type="line"/>
			<point x="677" y="519"/>
			<point x="682" y="514"/>
			<point x="690" y="514" type="curve" smooth="yes"/>
			<point x="698" y="514"/>
			<point x="704" y="520"/>
			<point x="703" y="531" type="curve" smooth="yes"/>
			<point x="695" y="697" type="line"/>
			<point x="694" y="712"/>
			<point x="685" y="720"/>
			<point x="670" y="720" type="curve" smooth="yes"/>
			<point x="389" y="720" type="line"/>
			<point x="344" y="720"/>
			<point x="314" y="729"/>
			<point x="274" y="729" type="curve" smooth="yes"/>
			<point x="135" y="729"/>
			<point x="40" y="567"/>
			<point x="40" y="359" type="curve" smooth="yes"/>
			<point x="40" y="153"/>
			<point x="135" y="-9"/>
		</contour>
		<contour>
			<point x="278" y="18" type="curve" smooth="yes"/>
			<point x="166" y="18"/>
			<point x="119" y="130"/>
			<point x="119" y="359" type="curve" smooth="yes"/>
			<point x="119" y="590"/>
			<point x="166" y="702"/>
			<point x="278" y="702" type="curve" smooth="yes"/>
			<point x="344" y="702"/>
			<point x="389" y="672"/>
			<point x="389" y="604" type="curve" smooth="yes"/>
			<point x="389" y="116" type="line"/>
			<point x="389" y="50"/>
			<point x="344" y="18"/>
		</contour>
	</outline>
</glyph>
<glyph name="gravecomb" format="2">
	<unicode hex="0300"/>
	<outline>
		<contour>
			<point x="269" y="586" type="line"/>
			<point x="281" y="581"/>
			<point x="288" y="583"/>
			<point x="292" y="590" type="curve" smooth="yes"/>
			<point x="296" y="596"/>
			<point x="293" y="605"/>
			<point x="283" y="612" type="curve" smooth="yes"/>
			<point x="139" y="724" type="line"/>
			<point x="126" y="734"/>
			<point x="115" y="740"/>
			<point x="98" y="740" type="curve" smooth="yes"/>
			<point x="74" y="740"/>
			<point x="60" y="723"/>
			<point x="60" y="707" type="curve" smooth="yes"/>
			<point x="60" y="689"/>
			<point x="67" y="678"/>
			<point x="91" y="667" type="curve" smooth="yes"/>
		</contour>
	</outline>
</glyph>
<glyph name="circumflexcomb" format="2">
	<unicode hex="0302"/>
	<outline>
		<contour>
			<point x="83" y="586" type="curve" smooth="yes"/>
			<point x="243" y="695" type="line"/>
			<point x="191" y="694" type="line"/>
			<point x="350" y="587" type="line"/>
			<point x="358" y="582"/>
			<point x="366" y="582"/>
			<point x="370" y="588" type="curve" smooth="yes"/>
			<point x="374" y="593"/>
			<point x="374" y="599"/>
			<point x="367" y="607" type="curve" smooth="yes"/>
			<point x="251" y="729" type="line"/>
			<point x="244" y="736"/>
			<point x="236" y="740"/>
			<point x="226" y="740" type="curve" smooth="yes"/>
			<point x="207" y="740" type="line"/>
			<point x="197" y="740"/>
			<point x="189" y="736"/>
			<point x="182" y="729" type="curve" smooth="yes"/>
			<point x="66" y="607" type="line"/>
			<point x="59" y="599"/>
			<point x="59" y="593"/>
			<point x="63" y="588" type="curve" smooth="yes"/>
			<point x="67" y="583"/>
			<point x="75" y="581"/>
		</contour>
	</outline>
</glyph>
<glyph name="macroncomb" format="2">
	<unicode hex="0304"/>
	<outline>
		<contour>
			<point x="72" y="636" type="curve"/>
			<point x="339" y="636" type="line"/>
			<point x="346" y="636"/>
			<point x="351" y="641"/>
			<point x="351" y="648" type="curve"/>
			<point x="351" y="663" type="line"/>
			<point x="351" y="670"/>
			<point x="346" y="675"/>
			<point x="339" y="675" type="curve"/>
			<point x="72" y="675" type="line"/>
			<point x="65" y="675"/>
			<point x="60" y="670"/>
			<point x="60" y="663" type="curve"/>
			<point x="60" y="648" type="line"/>
			<point x="60" y="641"/>
			<point x="65" y="636"/>
		</contour>
	</outline>
</glyph>
<glyph name="brevecomb" format="2">
	<unicode hex="0306"/>
	<outline>
		<contour>
			<point x="204" y="579" type="curve" smooth="yes"/>
			<point x="275" y="579"/>
			<point x="332" y="629"/>
			<point x="347" y="712" type="curve" smooth="yes"/>
			<point x="349" y="723"/>
			<point x="345" y="730"/>
			<point x="337" y="730" type="curve" smooth="yes"/>
			<point x="329" y="730"/>
			<point x="325" y="726"/>
			<point x="323" y="718" type="curve" smooth="yes"/>
			<point x="308" y="660"/>
			<point x="263" y="636"/>
			<point x="204" y="636" type="curve" smooth="yes"/>
			<point x="145" y="636"/>
			<point x="100" y="660"/>
			<point x="85" y="718" type="curve" smooth="yes"/>
			<point x="83" y="726"/>
			<point x="79" y="730"/>
			<point x="71" y="730" type="curve" smooth="yes"/>
			<point x="63" y="730"/>
			<point x="59" y="723"/>
			<point x="61" y="712" type="curve" smooth="yes"/>
			<point x="76" y="629"/>
			<point x="133" y="579"/>
		</contour>
	</outline>
</glyph>
<glyph name="dotaccentcomb" format="2">
	<unicode hex="0307"/>
	<outline>
		<contour>
			<point x="110" y="605" type="curve" smooth="yes"/>
			<point x="138" y="605"/>
			<point x="159" y="627"/>
			<point x="159" y="658" type="curve" smooth="yes"/>
			<point x="159" y="689"/>
			<point x="138" y="710"/>
			<point x="110" y="710" type="curve" smooth="yes"/>
			<point x="82" y="710"/>
			<point x="60" y="689"/>
			<point x="60" y="658" type="curve" smooth="yes"/>
			<point x="60" y="627"/>
			<point x="82" y="605"/>
		</contour>
	</outline>
</glyph>
<glyph name="ringcomb" format="2">
	<unicode hex="030A"/>
	<outline>
		<contour>
			<point x="168" y="561" type="curve" smooth="yes"/>
			<point x="229" y="561"/>
			<point x="275" y="609"/>
			<point x="275" y="669" type="curve" smooth="yes"/>
			<point x="275" y="728"/>
			<point x="229" y="776"/>
			<point x="168" y="776" type="curve" smooth="yes"/>
			<point x="106" y="776"/>
			<point x="60" y="728"/>
			<point x="60" y="669" type="curve" smooth="yes"/>
			<point x="60" y="609"/>
			<point x="106" y="561"/>
		</contour>
		<contour>
			<point x="168" y="588" type="curve" smooth="yes"/>
			<point x="122" y="588"/>
			<point x="90" y="624"/>
			<point x="90" y="669" type="curve" smooth="yes"/>
			<point x="90" y="713"/>
			<point x="122" y="749"/>
			<point x="168" y="749" type="curve" smooth="yes"/>
			<point x="213" y="749"/>
			<point x="245" y="713"/>
			<point x="245" y="669" type="curve" smooth="yes"/>
			<point x="245" y="624"/>
			<point x="213" y="588"/>
		</contour>
	</outline>
</glyph>
<glyph name="hungarumlautcomb" format="2">
	<unicode hex="030B"/>
	<outline>
		<contour>
			<point x="92" y="590" type="curve"/>
			<point x="176" y="662" type="line"/>
			<point x="196" y="679"/>
			<point x="204" y="694"/>
			<point x="204" y="709" type="curve"/>
			<point x="204" y="726"/>
			<point x="190" y="740"/>
			<point x="168" y="740" type="curve"/>
			<point x="146" y="740"/>
			<point x="134" y="729"/>
			<point x="121" y="704" type="curve"/>
			<point x="69" y="609" type="line"/>
			<point x="63" y="597"/>
			<point x="64" y="590"/>
			<point x="70" y="586" type="curve"/>
			<point x="77" y="581"/>
			<point x="83" y="583"/>
		</contour>
		<contour>
			<point x="242" y="590" type="curve"/>
			<point x="326" y="662" type="line"/>
			<point x="346" y="679"/>
			<point x="354" y="694"/>
			<point x="354" y="709" type="curve"/>
			<point x="354" y="726"/>
			<point x="340" y="740"/>
			<point x="318" y="740" type="curve"/>
			<point x="296" y="740"/>
			<point x="284" y="729"/>
			<point x="271" y="704" type="curve"/>
			<point x="219" y="609" type="line"/>
			<point x="213" y="597"/>
			<point x="214" y="590"/>
			<point x="220" y="586" type="curve"/>
			<point x="227" y="581"/>
			<point x="233" y="583"/>
		</contour>
	</outline>
</glyph>
<glyph name="commaaccentcomb" format="2">
	<unicode hex="0326"/>
	<outline>
		<contour>
			<point x="115" y="-67" type="curve"/>
			<point x="87" y="-67"/>
			<point x="67" y="-87"/>
			<point x="67" y="-114" type="curve"/>
			<point x="67" y="-161"/>
			<point x="117" y="-155"/>
			<point x="117" y="-198" type="curve"/>
			<point x="117" y="-224"/>
			<point x="105" y="-245"/>
			<point x="66" y="-284" type="curve"/>
			<point x="58" y="-292"/>
			<point x="58" y="-299"/>
			<point x="63" y="-303" type="curve"/>
			<point x="68" y="-307"/>
			<point x="76" y="-305"/>
			<point x="83" y="-299" type="curve"/>
			<point x="143" y="-249"/>
			<point x="169" y="-204"/>
			<point x="169" y="-139" type="curve"/>
			<point x="169" y="-98"/>
			<point x="148" y="-67"/>
		</contour>
	</outline>
</glyph>
<glyph name="ogonekcomb" format="2">
  <unicode hex="0328"/>
  <anchor x="194" y="0" name="_ogonek"/>
  <outline>
    <contour>
      <point x="134" y="-216" type="curve" smooth="yes"/>
      <point x="163" y="-216"/>
      <point x="183" y="-205"/>
      <point x="202" y="-183" type="curve" smooth="yes"/>
      <point x="210" y="-174"/>
      <point x="211" y="-168"/>
      <point x="207" y="-162" type="curve" smooth="yes"/>
      <point x="202" y="-156"/>
      <point x="194" y="-156"/>
      <point x="187" y="-165" type="curve" smooth="yes"/>
      <point x="175" y="-179"/>
      <point x="161" y="-186"/>
      <point x="145" y="-186" type="curve" smooth="yes"/>
      <point x="122" y="-186"/>
      <point x="106" y="-172"/>
      <point x="106" y="-133" type="curve" smooth="yes"/>
      <point x="106" y="-83"/>
      <point x="135" y="-33"/>
      <point x="194" y="0" type="curve"/>
      <point x="184" y="10" type="line"/>
      <point x="114" y="-19"/>
      <point x="60" y="-87"/>
      <point x="60" y="-143" type="curve" smooth="yes"/>
      <point x="60" y="-193"/>
      <point x="96" y="-216"/>
    </contour>
  </outline>
</glyph>
<glyph name="endash" format="2">
  <advance width="510"/>
  <unicode hex="2013"/>
  <outline>
    <contour>
      <point x="92" y="259" type="curve" smooth="yes"/>
      <point x="418" y="259" type="line" smooth="yes"/>
      <point x="424" y="259"/>
      <point x="428" y="263"/>
      <point x="428" y="269" type="curve" smooth="yes"/>
      <point x="428" y="283" type="line" smooth="yes"/>
      <point x="428" y="289"/>
      <point x="424" y="293"/>
      <point x="418" y="293" type="curve" smooth="yes"/>
      <point x="92" y="293" type="line" smooth="yes"/>
      <point x="86" y="293"/>
      <point x="82" y="289"/>
      <point x="82" y="283" type="curve" smooth="yes"/>
      <point x="82" y="269" type="line" smooth="yes"/>
      <point x="82" y="263"/>
      <point x="86" y="259"/>
    </contour>
  </outline>
</glyph>
<glyph name="emdash" format="2">
	<unicode hex="2014"/>
	<advance width="720"/>
	<outline>
		<contour>
			<point x="92" y="259" type="curve"/>
			<point x="628" y="259" type="line"/>
			<point x="634" y="259"/>
			<point x="638" y="263"/>
			<point x="638" y="269" type="curve"/>
			<point x="638" y="283" type="line"/>
			<point x="638" y="289"/>
			<point x="634" y="293"/>
			<point x="628" y="293" type="curve"/>
			<point x="92" y="293" type="line"/>
			<point x="86" y="293"/>
			<point x="82" y="289"/>
			<point x="82" y="283" type="curve"/>
			<point x="82" y="269" type="line"/>
			<point x="82" y="263"/>
			<point x="86" y="259"/>
		</contour>
	</outline>
</glyph>
<glyph name="quoteright" format="2">
	<unicode hex="2019"/>
	<advance width="166"/>
	<outline>
		<contour>
			<point x="55" y="508" type="curve" smooth="yes"/>
			<point x="117" y="552"/>
			<point x="142" y="602"/>
			<point x="142" y="663" type="curve" smooth="yes"/>
			<point x="142" y="704"/>
			<point x="121" y="730"/>
			<point x="88" y="730" type="curve" smooth="yes"/>
			<point x="58" y="730"/>
			<point x="40" y="710"/>
			<point x="40" y="686" type="curve" smooth="yes"/>
			<point x="40" y="639"/>
			<point x="92" y="648"/>
			<point x="92" y="600" type="curve" smooth="yes"/>
			<point x="92" y="583"/>
			<point x="84" y="562"/>
			<point x="39" y="523" type="curve" smooth="yes"/>
			<point x="30" y="516"/>
			<point x="31" y="508"/>
			<point x="36" y="504" type="curve" smooth="yes"/>
			<point x="41" y="500"/>
			<point x="47" y="502"/>
		</contour>
	</outline>
</glyph>
<glyph name="trademark" format="2">
	<unicode hex="2122"/>
	<advance width="571"/>
	<outline>
		<contour>
			<point x="71" y="403" type="curve"/>
			<point x="180" y="403" type="line"/>
			<point x="185" y="403"/>
			<point x="187" y="405"/>
			<point x="187" y="408" type="curve"/>
			<point x="187" y="410"/>
			<point x="185" y="412"/>
			<point x="181" y="413" type="curve"/>
			<point x="161" y="416" type="line"/>
			<point x="150" y="418"/>
			<point x="146" y="421"/>
			<point x="146" y="433" type="curve"/>
			<point x="146" y="689" type="line"/>
			<point x="146" y="697"/>
			<point x="149" y="700"/>
			<point x="160" y="700" type="curve"/>
			<point x="182" y="700"/>
			<point x="202" y="683"/>
			<point x="210" y="641" type="curve"/>
			<point x="212" y="631" type="line"/>
			<point x="214" y="623"/>
			<point x="216" y="619"/>
			<point x="221" y="619" type="curve"/>
			<point x="225" y="619"/>
			<point x="227" y="623"/>
			<point x="227" y="628" type="curve"/>
			<point x="223" y="717" type="line"/>
			<point x="223" y="723"/>
			<point x="220" y="727"/>
			<point x="215" y="727" type="curve"/>
			<point x="209" y="727"/>
			<point x="208" y="720"/>
			<point x="180" y="720" type="curve"/>
			<point x="71" y="720" type="line"/>
			<point x="43" y="720"/>
			<point x="42" y="727"/>
			<point x="36" y="727" type="curve"/>
			<point x="31" y="727"/>
			<point x="28" y="723"/>
			<point x="28" y="717" type="curve"/>
			<point x="24" y="628" type="line"/>
			<point x="24" y="623"/>
			<point x="26" y="619"/>
			<point x="30" y="619" type="curve"/>
			<point x="35" y="619"/>
			<point x="37" y="623"/>
			<point x="39" y="631" type="curve"/>
			<point x="41" y="641" type="line"/>
			<point x="49" y="683"/>
			<point x="69" y="700"/>
			<point x="91" y="700" type="curve"/>
			<point x="102" y="700"/>
			<point x="105" y="697"/>
			<point x="105" y="689" type="curve"/>
			<point x="105" y="433" type="line"/>
			<point x="105" y="421"/>
			<point x="101" y="418"/>
			<point x="90" y="416" type="curve"/>
			<point x="70" y="413" type="line"/>
			<point x="66" y="412"/>
			<point x="64" y="410"/>
			<point x="64" y="408" type="curve"/>
			<point x="64" y="405"/>
			<point x="67" y="403"/>
		</contour>
		<contour>
			<point x="244" y="403" type="curve"/>
			<point x="312" y="403" type="line"/>
			<point x="316" y="403"/>
			<point x="319" y="405"/>
			<point x="319" y="408" type="curve"/>
			<point x="319" y="410"/>
			<point x="317" y="412"/>
			<point x="313" y="413" type="curve"/>
			<point x="307" y="414" type="line"/>
			<point x="293" y="416"/>
			<point x="287" y="424"/>
			<point x="288" y="441" type="curve"/>
			<point x="297" y="684" type="line"/>
			<point x="297" y="688"/>
			<point x="300" y="689"/>
			<point x="301" y="685" type="curve"/>
			<point x="364" y="423" type="line"/>
			<point x="367" y="409"/>
			<point x="372" y="407"/>
			<point x="377" y="407" type="curve"/>
			<point x="382" y="407"/>
			<point x="388" y="409"/>
			<point x="392" y="423" type="curve"/>
			<point x="459" y="685" type="line"/>
			<point x="460" y="689"/>
			<point x="463" y="688"/>
			<point x="463" y="684" type="curve"/>
			<point x="471" y="432" type="line"/>
			<point x="471" y="420"/>
			<point x="468" y="417"/>
			<point x="456" y="415" type="curve"/>
			<point x="446" y="413" type="line"/>
			<point x="442" y="412"/>
			<point x="440" y="410"/>
			<point x="440" y="408" type="curve"/>
			<point x="440" y="405"/>
			<point x="442" y="403"/>
			<point x="447" y="403" type="curve"/>
			<point x="536" y="403" type="line"/>
			<point x="541" y="403"/>
			<point x="543" y="405"/>
			<point x="543" y="408" type="curve"/>
			<point x="543" y="410"/>
			<point x="541" y="412"/>
			<point x="537" y="413" type="curve"/>
			<point x="527" y="415" type="line"/>
			<point x="515" y="417"/>
			<point x="512" y="420"/>
			<point x="512" y="432" type="curve"/>
			<point x="503" y="691" type="line"/>
			<point x="503" y="704"/>
			<point x="506" y="708"/>
			<point x="518" y="709" type="curve"/>
			<point x="529" y="710" type="line"/>
			<point x="533" y="710"/>
			<point x="534" y="713"/>
			<point x="534" y="716" type="curve"/>
			<point x="534" y="719"/>
			<point x="532" y="720"/>
			<point x="528" y="720" type="curve"/>
			<point x="461" y="720" type="line"/>
			<point x="452" y="720"/>
			<point x="449" y="717"/>
			<point x="447" y="709" type="curve"/>
			<point x="391" y="487" type="line"/>
			<point x="390" y="483"/>
			<point x="387" y="483"/>
			<point x="386" y="487" type="curve"/>
			<point x="337" y="707" type="line"/>
			<point x="335" y="716"/>
			<point x="330" y="720"/>
			<point x="321" y="720" type="curve"/>
			<point x="253" y="720" type="line"/>
			<point x="248" y="720"/>
			<point x="246" y="719"/>
			<point x="246" y="716" type="curve"/>
			<point x="246" y="713"/>
			<point x="248" y="710"/>
			<point x="252" y="710" type="curve"/>
			<point x="262" y="709" type="line"/>
			<point x="275" y="708"/>
			<point x="278" y="704"/>
			<point x="278" y="691" type="curve"/>
			<point x="269" y="441" type="line"/>
			<point x="268" y="424"/>
			<point x="264" y="416"/>
			<point x="249" y="414" type="curve"/>
			<point x="243" y="413" type="line"/>
			<point x="239" y="412"/>
			<point x="237" y="410"/>
			<point x="237" y="408" type="curve"/>
			<point x="237" y="405"/>
			<point x="239" y="403"/>
		</contour>
	</outline>
</glyph>
<glyph name="minus" format="2">
  <advance width="531"/>
  <unicode hex="2212"/>
  <outline>
    <contour>
      <point x="70" y="354" type="curve" smooth="yes"/>
      <point x="461" y="354" type="line" smooth="yes"/>
      <point x="467" y="354"/>
      <point x="471" y="358"/>
      <point x="471" y="364" type="curve" smooth="yes"/>
      <point x="471" y="378" type="line" smooth="yes"/>
      <point x="471" y="384"/>
      <point x="467" y="388"/>
      <point x="461" y="388" type="curve" smooth="yes"/>
      <point x="70" y="388" type="line" smooth="yes"/>
      <point x="64" y="388"/>
      <point x="60" y="384"/>
      <point x="60" y="378" type="curve" smooth="yes"/>
      <point x="60" y="364" type="line" smooth="yes"/>
      <point x="60" y="358"/>
      <point x="64" y="354"/>
    </contour>
  </outline>
</glyph>
<glyph name="a.ss01" format="2">
  <advance width="389"/>
  <outline>
    <contour>
      <point x="120" y="-9" type="curve" smooth="yes"/>
      <point x="169" y="-9"/>
      <point x="199" y="14"/>
      <point x="231" y="58" type="curve" smooth="yes"/>
      <point x="240" y="71"/>
      <point x="252" y="70"/>
      <point x="254" y="57" type="curve" smooth="yes"/>
      <point x="261" y="10"/>
      <point x="275" y="-9"/>
      <point x="310" y="-9" type="curve" smooth="yes"/>
      <point x="344" y="-9"/>
      <point x="373" y="19"/>
      <point x="373" y="35" type="curve" smooth="yes"/>
      <point x="373" y="40"/>
      <point x="370" y="43"/>
      <point x="365" y="43" type="curve" smooth="yes"/>
      <point x="357" y="43"/>
      <point x="351" y="33"/>
      <point x="336" y="33" type="curve" smooth="yes"/>
      <point x="320" y="33"/>
      <point x="313" y="43"/>
      <point x="313" y="66" type="curve" smooth="yes"/>
      <point x="313" y="401" type="line" smooth="yes"/>
      <point x="313" y="479"/>
      <point x="278" y="516"/>
      <point x="214" y="516" type="curve" smooth="yes"/>
      <point x="129" y="516"/>
      <point x="31" y="433"/>
      <point x="31" y="355" type="curve" smooth="yes"/>
      <point x="31" y="337"/>
      <point x="42" y="327"/>
      <point x="59" y="327" type="curve" smooth="yes"/>
      <point x="81" y="327"/>
      <point x="107" y="345"/>
      <point x="114" y="388" type="curve" smooth="yes"/>
      <point x="126" y="458"/>
      <point x="155" y="486"/>
      <point x="189" y="486" type="curve" smooth="yes"/>
      <point x="223" y="486"/>
      <point x="245" y="461"/>
      <point x="245" y="397" type="curve" smooth="yes"/>
      <point x="245" y="306" type="line" smooth="yes"/>
      <point x="245" y="298"/>
      <point x="241" y="292"/>
      <point x="232" y="289" type="curve" smooth="yes"/>
      <point x="111" y="250"/>
      <point x="24" y="173"/>
      <point x="24" y="88" type="curve" smooth="yes"/>
      <point x="24" y="29"/>
      <point x="64" y="-9"/>
    </contour>
    <contour>
      <point x="147" y="37" type="curve" smooth="yes"/>
      <point x="114" y="37"/>
      <point x="96" y="61"/>
      <point x="96" y="106" type="curve" smooth="yes"/>
      <point x="96" y="178"/>
      <point x="143" y="229"/>
      <point x="224" y="259" type="curve" smooth="yes"/>
      <point x="237" y="264"/>
      <point x="245" y="259"/>
      <point x="245" y="248" type="curve" smooth="yes"/>
      <point x="245" y="175" type="line" smooth="yes"/>
      <point x="245" y="97"/>
      <point x="198" y="37"/>
    </contour>
  </outline>
</glyph>
<glyph name="caroncomb.alt" format="2">
	<outline>
		<contour>
			<point x="89" y="503" type="curve" smooth="yes"/>
			<point x="129" y="665" type="line"/>
			<point x="137" y="698"/>
			<point x="127" y="720"/>
			<point x="102" y="720" type="curve" smooth="yes"/>
			<point x="81" y="720"/>
			<point x="65" y="703"/>
			<point x="64" y="669" type="curve" smooth="yes"/>
			<point x="60" y="507" type="line"/>
			<point x="60" y="496"/>
			<point x="65" y="491"/>
			<point x="72" y="491" type="curve" smooth="yes"/>
			<point x="80" y="491"/>
			<point x="87" y="495"/>
		</contour>
	</outline>
</glyph>
<glyph name="d.ss01" format="2">
	<advance width="446"/>
	<outline>
		<contour>
			<point x="181" y="-9" type="curve" smooth="yes"/>
			<point x="225" y="-9"/>
			<point x="251" y="6"/>
			<point x="288" y="58" type="curve" smooth="yes"/>
			<point x="295" y="68"/>
			<point x="306" y="69"/>
			<point x="308" y="57" type="curve" smooth="yes"/>
			<point x="315" y="10"/>
			<point x="333" y="-9"/>
			<point x="367" y="-9" type="curve" smooth="yes"/>
			<point x="409" y="-9"/>
			<point x="436" y="25"/>
			<point x="436" y="41" type="curve" smooth="yes"/>
			<point x="436" y="46"/>
			<point x="433" y="49"/>
			<point x="428" y="49" type="curve" smooth="yes"/>
			<point x="420" y="49"/>
			<point x="412" y="33"/>
			<point x="393" y="33" type="curve" smooth="yes"/>
			<point x="378" y="33"/>
			<point x="371" y="43"/>
			<point x="371" y="66" type="curve" smooth="yes"/>
			<point x="371" y="724" type="line"/>
			<point x="371" y="735"/>
			<point x="367" y="740"/>
			<point x="360" y="740" type="curve" smooth="yes"/>
			<point x="354" y="740"/>
			<point x="347" y="737"/>
			<point x="336" y="730" type="curve" smooth="yes"/>
			<point x="319" y="719"/>
			<point x="294" y="708"/>
			<point x="252" y="700" type="curve" smooth="yes"/>
			<point x="245" y="699"/>
			<point x="241" y="694"/>
			<point x="241" y="688" type="curve" smooth="yes"/>
			<point x="241" y="682"/>
			<point x="245" y="677"/>
			<point x="252" y="676" type="curve" smooth="yes"/>
			<point x="278" y="673" type="line"/>
			<point x="297" y="671"/>
			<point x="303" y="664"/>
			<point x="303" y="640" type="curve" smooth="yes"/>
			<point x="303" y="512" type="line"/>
			<point x="303" y="502"/>
			<point x="297" y="500"/>
			<point x="287" y="505" type="curve" smooth="yes"/>
			<point x="269" y="513"/>
			<point x="251" y="516"/>
			<point x="232" y="516" type="curve" smooth="yes"/>
			<point x="115" y="516"/>
			<point x="30" y="400"/>
			<point x="30" y="233" type="curve" smooth="yes"/>
			<point x="30" y="88"/>
			<point x="92" y="-9"/>
		</contour>
		<contour>
			<point x="203" y="37" type="curve" smooth="yes"/>
			<point x="141" y="37"/>
			<point x="104" y="110"/>
			<point x="104" y="247" type="curve" smooth="yes"/>
			<point x="104" y="397"/>
			<point x="154" y="491"/>
			<point x="229" y="491" type="curve" smooth="yes"/>
			<point x="273" y="491"/>
			<point x="303" y="454"/>
			<point x="303" y="394" type="curve" smooth="yes"/>
			<point x="303" y="169" type="line"/>
			<point x="303" y="95"/>
			<point x="254" y="37"/>
		</contour>
	</outline>
</glyph>
<glyph name="f_f_i" format="2">
	<advance width="728"/>
	<outline>
		<contour>
			<point x="28" y="0" type="curve" smooth="yes"/>
			<point x="203" y="0" type="line"/>
			<point x="213" y="0"/>
			<point x="218" y="4"/>
			<point x="218" y="12" type="curve" smooth="yes"/>
			<point x="218" y="18"/>
			<point x="214" y="22"/>
			<point x="207" y="23" type="curve" smooth="yes"/>
			<point x="182" y="26" type="line"/>
			<point x="159" y="29"/>
			<point x="153" y="39"/>
			<point x="153" y="67" type="curve" smooth="yes"/>
			<point x="153" y="470" type="line"/>
			<point x="153" y="477"/>
			<point x="158" y="482"/>
			<point x="165" y="482" type="curve" smooth="yes"/>
			<point x="323" y="482" type="line"/>
			<point x="330" y="482"/>
			<point x="335" y="477"/>
			<point x="335" y="470" type="curve" smooth="yes"/>
			<point x="335" y="67" type="line"/>
			<point x="335" y="39"/>
			<point x="329" y="28"/>
			<point x="296" y="25" type="curve" smooth="yes"/>
			<point x="276" y="23" type="line"/>
			<point x="267" y="22"/>
			<point x="263" y="17"/>
			<point x="263" y="11" type="curve" smooth="yes"/>
			<point x="263" y="4"/>
			<point x="268" y="0"/>
			<point x="278" y="0" type="curve" smooth="yes"/>
			<point x="453" y="0" type="line"/>
			<point x="463" y="0"/>
			<point x="468" y="4"/>
			<point x="468" y="12" type="curve" smooth="yes"/>
			<point x="468" y="18"/>
			<point x="464" y="22"/>
			<point x="457" y="23" type="curve" smooth="yes"/>
			<point x="432" y="26" type="line"/>
			<point x="409" y="29"/>
			<point x="403" y="39"/>
			<point x="403" y="67" type="curve" smooth="yes"/>
			<point x="403" y="470" type="line"/>
			<point x="403" y="477"/>
			<point x="408" y="482"/>
			<point x="415" y="482" type="curve" smooth="yes"/>
			<point x="569" y="482" type="line"/>
			<point x="578" y="482"/>
			<point x="583" y="477"/>
			<point x="583" y="468" type="curve" smooth="yes"/>
			<point x="583" y="67" type="line"/>
			<point x="583" y="39"/>
			<point x="577" y="30"/>
			<point x="544" y="25" type="curve" smooth="yes"/>
			<point x="532" y="23" type="line"/>
			<point x="523" y="21"/>
			<point x="519" y="17"/>
			<point x="519" y="11" type="curve" smooth="yes"/>
			<point x="519" y="4"/>
			<point x="524" y="0"/>
			<point x="534" y="0" type="curve" smooth="yes"/>
			<point x="701" y="0" type="line"/>
			<point x="711" y="0"/>
			<point x="716" y="4"/>
			<point x="716" y="12" type="curve" smooth="yes"/>
			<point x="716" y="18"/>
			<point x="712" y="22"/>
			<point x="705" y="23" type="curve" smooth="yes"/>
			<point x="680" y="26" type="line"/>
			<point x="657" y="29"/>
			<point x="651" y="39"/>
			<point x="651" y="67" type="curve" smooth="yes"/>
			<point x="651" y="486" type="line"/>
			<point x="651" y="501"/>
			<point x="642" y="510"/>
			<point x="627" y="510" type="curve" smooth="yes"/>
			<point x="415" y="510" type="line"/>
			<point x="408" y="510"/>
			<point x="403" y="515"/>
			<point x="403" y="522" type="curve" smooth="yes"/>
			<point x="403" y="590" type="line"/>
			<point x="403" y="692"/>
			<point x="448" y="719"/>
			<point x="498" y="719" type="curve" smooth="yes"/>
			<point x="575" y="719"/>
			<point x="557" y="626"/>
			<point x="613" y="626" type="curve" smooth="yes"/>
			<point x="641" y="626"/>
			<point x="653" y="643"/>
			<point x="653" y="668" type="curve" smooth="yes"/>
			<point x="653" y="711"/>
			<point x="599" y="748"/>
			<point x="518" y="748" type="curve" smooth="yes"/>
			<point x="453" y="748"/>
			<point x="404" y="721"/>
			<point x="373" y="680" type="curve" smooth="yes"/>
			<point x="368" y="673"/>
			<point x="362" y="673"/>
			<point x="357" y="680" type="curve" smooth="yes"/>
			<point x="331" y="713"/>
			<point x="299" y="728"/>
			<point x="256" y="728" type="curve" smooth="yes"/>
			<point x="147" y="728"/>
			<point x="85" y="634"/>
			<point x="85" y="550" type="curve" smooth="yes"/>
			<point x="85" y="544" type="line"/>
			<point x="85" y="521"/>
			<point x="69" y="506"/>
			<point x="38" y="503" type="curve" smooth="yes"/>
			<point x="30" y="502"/>
			<point x="26" y="498"/>
			<point x="26" y="492" type="curve" smooth="yes"/>
			<point x="26" y="486"/>
			<point x="31" y="482"/>
			<point x="38" y="482" type="curve" smooth="yes"/>
			<point x="61" y="482" type="line"/>
			<point x="76" y="482"/>
			<point x="85" y="473"/>
			<point x="85" y="458" type="curve" smooth="yes"/>
			<point x="85" y="67" type="line"/>
			<point x="85" y="39"/>
			<point x="79" y="28"/>
			<point x="46" y="25" type="curve" smooth="yes"/>
			<point x="26" y="23" type="line"/>
			<point x="17" y="22"/>
			<point x="13" y="17"/>
			<point x="13" y="11" type="curve" smooth="yes"/>
			<point x="13" y="4"/>
			<point x="18" y="0"/>
		</contour>
		<contour>
			<point x="165" y="510" type="line"/>
			<point x="158" y="510"/>
			<point x="153" y="515"/>
			<point x="153" y="522" type="curve" smooth="yes"/>
			<point x="153" y="590" type="line"/>
			<point x="153" y="672"/>
			<point x="198" y="703"/>
			<point x="248" y="703" type="curve" smooth="yes"/>
			<point x="313" y="703"/>
			<point x="335" y="651"/>
			<point x="335" y="586" type="curve" smooth="yes"/>
			<point x="335" y="522" type="line"/>
			<point x="335" y="515"/>
			<point x="330" y="510"/>
			<point x="323" y="510" type="curve" smooth="yes"/>
		</contour>
	</outline>
</glyph>
<glyph name="f_f_l" format="2">
	<advance width="731"/>
	<outline>
		<contour>
			<point x="28" y="0" type="curve"/>
			<point x="203" y="0" type="line"/>
			<point x="213" y="0"/>
			<point x="218" y="4"/>
			<point x="218" y="12" type="curve"/>
			<point x="218" y="18"/>
			<point x="214" y="22"/>
			<point x="207" y="23" type="curve"/>
			<point x="182" y="26" type="line"/>
			<point x="159" y="29"/>
			<point x="153" y="39"/>
			<point x="153" y="67" type="curve"/>
			<point x="153" y="470" type="line"/>
			<point x="153" y="477"/>
			<point x="158" y="482"/>
			<point x="165" y="482" type="curve"/>
			<point x="323" y="482" type="line"/>
			<point x="330" y="482"/>
			<point x="335" y="477"/>
			<point x="335" y="470" type="curve"/>
			<point x="335" y="67" type="line"/>
			<point x="335" y="39"/>
			<point x="329" y="28"/>
			<point x="296" y="25" type="curve"/>
			<point x="276" y="23" type="line"/>
			<point x="267" y="22"/>
			<point x="263" y="17"/>
			<point x="263" y="11" type="curve"/>
			<point x="263" y="4"/>
			<point x="268" y="0"/>
			<point x="278" y="0" type="curve"/>
			<point x="453" y="0" type="line"/>
			<point x="463" y="0"/>
			<point x="468" y="4"/>
			<point x="468" y="12" type="curve"/>
			<point x="468" y="18"/>
			<point x="464" y="22"/>
			<point x="457" y="23" type="curve"/>
			<point x="432" y="26" type="line"/>
			<point x="409" y="29"/>
			<point x="403" y="39"/>
			<point x="403" y="67" type="curve"/>
			<point x="403" y="470" type="line"/>
			<point x="403" y="477"/>
			<point x="408" y="482"/>
			<point x="415" y="482" type="curve"/>
			<point x="501" y="482" type="line"/>
			<point x="509" y="482"/>
			<point x="516" y="487"/>
			<point x="516" y="496" type="curve"/>
			<point x="516" y="505"/>
			<point x="509" y="510"/>
			<point x="501" y="510" type="curve"/>
			<point x="415" y="510" type="line"/>
			<point x="408" y="510"/>
			<point x="403" y="515"/>
			<point x="403" y="522" type="curve"/>
			<point x="403" y="590" type="line"/>
			<point x="403" y="692"/>
			<point x="448" y="723"/>
			<point x="498" y="723" type="curve"/>
			<point x="563" y="723"/>
			<point x="585" y="671"/>
			<point x="585" y="606" type="curve"/>
			<point x="585" y="67" type="line"/>
			<point x="585" y="39"/>
			<point x="572" y="29"/>
			<point x="544" y="25" type="curve"/>
			<point x="530" y="23" type="line"/>
			<point x="523" y="22"/>
			<point x="519" y="17"/>
			<point x="519" y="11" type="curve"/>
			<point x="519" y="5"/>
			<point x="524" y="0"/>
			<point x="531" y="0" type="curve"/>
			<point x="709" y="0" type="line"/>
			<point x="716" y="0"/>
			<point x="721" y="4"/>
			<point x="721" y="11" type="curve"/>
			<point x="721" y="18"/>
			<point x="717" y="22"/>
			<point x="710" y="23" type="curve"/>
			<point x="687" y="26" type="line"/>
			<point x="659" y="30"/>
			<point x="653" y="39"/>
			<point x="653" y="67" type="curve"/>
			<point x="653" y="724" type="line"/>
			<point x="653" y="735"/>
			<point x="649" y="743"/>
			<point x="640" y="743" type="curve"/>
			<point x="628" y="743"/>
			<point x="624" y="736"/>
			<point x="616" y="712" type="curve"/>
			<point x="613" y="703"/>
			<point x="605" y="702"/>
			<point x="599" y="709" type="curve"/>
			<point x="575" y="734"/>
			<point x="544" y="748"/>
			<point x="506" y="748" type="curve"/>
			<point x="447" y="748"/>
			<point x="403" y="721"/>
			<point x="374" y="680" type="curve"/>
			<point x="369" y="673"/>
			<point x="363" y="673"/>
			<point x="358" y="680" type="curve"/>
			<point x="332" y="713"/>
			<point x="299" y="728"/>
			<point x="256" y="728" type="curve"/>
			<point x="147" y="728"/>
			<point x="85" y="634"/>
			<point x="85" y="550" type="curve"/>
			<point x="85" y="544" type="line"/>
			<point x="85" y="521"/>
			<point x="69" y="506"/>
			<point x="38" y="503" type="curve"/>
			<point x="30" y="502"/>
			<point x="26" y="498"/>
			<point x="26" y="492" type="curve"/>
			<point x="26" y="486"/>
			<point x="31" y="482"/>
			<point x="38" y="482" type="curve"/>
			<point x="61" y="482" type="line"/>
			<point x="76" y="482"/>
			<point x="85" y="473"/>
			<point x="85" y="458" type="curve"/>
			<point x="85" y="67" type="line"/>
			<point x="85" y="39"/>
			<point x="79" y="28"/>
			<point x="46" y="25" type="curve"/>
			<point x="26" y="23" type="line"/>
			<point x="17" y="22"/>
			<point x="13" y="17"/>
			<point x="13" y="11" type="curve"/>
			<point x="13" y="4"/>
			<point x="18" y="0"/>
		</contour>
		<contour>
			<point x="165" y="510" type="line"/>
			<point x="158" y="510"/>
			<point x="153" y="515"/>
			<point x="153" y="522" type="curve"/>
			<point x="153" y="590" type="line"/>
			<point x="153" y="672"/>
			<point x="198" y="703"/>
			<point x="248" y="703" type="curve"/>
			<point x="313" y="703"/>
			<point x="335" y="651"/>
			<point x="335" y="586" type="curve"/>
			<point x="335" y="522" type="line"/>
			<point x="335" y="515"/>
			<point x="330" y="510"/>
			<point x="323" y="510" type="curve"/>
		</contour>
	</outline>
</glyph>
<glyph name="f_i" format="2">
  <advance width="477"/>
  <anchor x="119" y="0" name="bottom_1"/>
  <anchor x="358" y="0" name="bottom_2"/>
  <anchor x="238.5" y="0" name="caret_1"/>
  <anchor x="119" y="740" name="top_1"/>
  <anchor x="358" y="740" name="top_2"/>
  <outline>
    <contour>
      <point x="28" y="0" type="curve" smooth="yes"/>
      <point x="203" y="0" type="line" smooth="yes"/>
      <point x="213" y="0"/>
      <point x="218" y="4"/>
      <point x="218" y="12" type="curve" smooth="yes"/>
      <point x="218" y="18"/>
      <point x="214" y="22"/>
      <point x="207" y="23" type="curve" smooth="yes"/>
      <point x="182" y="26" type="line" smooth="yes"/>
      <point x="159" y="29"/>
      <point x="153" y="39"/>
      <point x="153" y="67" type="curve" smooth="yes"/>
      <point x="153" y="470" type="line" smooth="yes"/>
      <point x="153" y="477"/>
      <point x="158" y="482"/>
      <point x="165" y="482" type="curve" smooth="yes"/>
      <point x="319" y="482" type="line" smooth="yes"/>
      <point x="328" y="482"/>
      <point x="333" y="477"/>
      <point x="333" y="468" type="curve" smooth="yes"/>
      <point x="333" y="67" type="line" smooth="yes"/>
      <point x="333" y="39"/>
      <point x="327" y="30"/>
      <point x="294" y="25" type="curve" smooth="yes"/>
      <point x="282" y="23" type="line" smooth="yes"/>
      <point x="273" y="21"/>
      <point x="269" y="17"/>
      <point x="269" y="11" type="curve" smooth="yes"/>
      <point x="269" y="4"/>
      <point x="274" y="0"/>
      <point x="284" y="0" type="curve" smooth="yes"/>
      <point x="451" y="0" type="line" smooth="yes"/>
      <point x="461" y="0"/>
      <point x="466" y="4"/>
      <point x="466" y="12" type="curve" smooth="yes"/>
      <point x="466" y="18"/>
      <point x="462" y="22"/>
      <point x="455" y="23" type="curve" smooth="yes"/>
      <point x="430" y="26" type="line" smooth="yes"/>
      <point x="407" y="29"/>
      <point x="401" y="39"/>
      <point x="401" y="67" type="curve" smooth="yes"/>
      <point x="401" y="486" type="line" smooth="yes"/>
      <point x="401" y="501"/>
      <point x="392" y="510"/>
      <point x="377" y="510" type="curve" smooth="yes"/>
      <point x="165" y="510" type="line" smooth="yes"/>
      <point x="158" y="510"/>
      <point x="153" y="515"/>
      <point x="153" y="522" type="curve" smooth="yes"/>
      <point x="153" y="590" type="line" smooth="yes"/>
      <point x="153" y="692"/>
      <point x="198" y="719"/>
      <point x="248" y="719" type="curve" smooth="yes"/>
      <point x="325" y="719"/>
      <point x="307" y="626"/>
      <point x="363" y="626" type="curve" smooth="yes"/>
      <point x="391" y="626"/>
      <point x="403" y="643"/>
      <point x="403" y="668" type="curve" smooth="yes"/>
      <point x="403" y="711"/>
      <point x="349" y="748"/>
      <point x="268" y="748" type="curve" smooth="yes"/>
      <point x="147" y="748"/>
      <point x="85" y="654"/>
      <point x="85" y="550" type="curve" smooth="yes"/>
      <point x="85" y="544" type="line" smooth="yes"/>
      <point x="85" y="521"/>
      <point x="69" y="506"/>
      <point x="38" y="503" type="curve" smooth="yes"/>
      <point x="30" y="502"/>
      <point x="26" y="498"/>
      <point x="26" y="492" type="curve" smooth="yes"/>
      <point x="26" y="486"/>
      <point x="31" y="482"/>
      <point x="38" y="482" type="curve" smooth="yes"/>
      <point x="61" y="482" type="line" smooth="yes"/>
      <point x="76" y="482"/>
      <point x="85" y="473"/>
      <point x="85" y="458" type="curve" smooth="yes"/>
      <point x="85" y="67" type="line" smooth="yes"/>
      <point x="85" y="39"/>
      <point x="79" y="28"/>
      <point x="46" y="25" type="curve" smooth="yes"/>
      <point x="26" y="23" type="line" smooth="yes"/>
      <point x="17" y="22"/>
      <point x="13" y="17"/>
      <point x="13" y="11" type="curve" smooth="yes"/>
      <point x="13" y="4"/>
      <point x="18" y="0"/>
    </contour>
  </outline>
</glyph>
<glyph name="f_l" format="2">
	<advance width="480"/>
	<outline>
		<contour>
			<point x="28" y="0" type="curve" smooth="yes"/>
			<point x="203" y="0" type="line"/>
			<point x="213" y="0"/>
			<point x="218" y="4"/>
			<point x="218" y="12" type="curve" smooth="yes"/>
			<point x="218" y="18"/>
			<point x="214" y="22"/>
			<point x="207" y="23" type="curve" smooth="yes"/>
			<point x="182" y="26" type="line"/>
			<point x="159" y="29"/>
			<point x="153" y="39"/>
			<point x="153" y="67" type="curve" smooth="yes"/>
			<point x="153" y="470" type="line"/>
			<point x="153" y="477"/>
			<point x="158" y="482"/>
			<point x="165" y="482" type="curve" smooth="yes"/>
			<point x="251" y="482" type="line"/>
			<point x="259" y="482"/>
			<point x="266" y="487"/>
			<point x="266" y="496" type="curve" smooth="yes"/>
			<point x="266" y="505"/>
			<point x="259" y="510"/>
			<point x="251" y="510" type="curve" smooth="yes"/>
			<point x="165" y="510" type="line"/>
			<point x="158" y="510"/>
			<point x="153" y="515"/>
			<point x="153" y="522" type="curve" smooth="yes"/>
			<point x="153" y="590" type="line"/>
			<point x="153" y="692"/>
			<point x="198" y="723"/>
			<point x="248" y="723" type="curve" smooth="yes"/>
			<point x="313" y="723"/>
			<point x="335" y="671"/>
			<point x="335" y="606" type="curve" smooth="yes"/>
			<point x="335" y="67" type="line"/>
			<point x="335" y="39"/>
			<point x="322" y="29"/>
			<point x="294" y="25" type="curve" smooth="yes"/>
			<point x="280" y="23" type="line"/>
			<point x="273" y="22"/>
			<point x="269" y="17"/>
			<point x="269" y="11" type="curve" smooth="yes"/>
			<point x="269" y="5"/>
			<point x="274" y="0"/>
			<point x="281" y="0" type="curve" smooth="yes"/>
			<point x="459" y="0" type="line"/>
			<point x="466" y="0"/>
			<point x="471" y="4"/>
			<point x="471" y="11" type="curve" smooth="yes"/>
			<point x="471" y="18"/>
			<point x="467" y="22"/>
			<point x="460" y="23" type="curve" smooth="yes"/>
			<point x="437" y="26" type="line"/>
			<point x="409" y="30"/>
			<point x="403" y="39"/>
			<point x="403" y="67" type="curve" smooth="yes"/>
			<point x="403" y="724" type="line"/>
			<point x="403" y="735"/>
			<point x="399" y="743"/>
			<point x="390" y="743" type="curve" smooth="yes"/>
			<point x="378" y="743"/>
			<point x="374" y="736"/>
			<point x="366" y="712" type="curve" smooth="yes"/>
			<point x="363" y="703"/>
			<point x="355" y="702"/>
			<point x="349" y="709" type="curve" smooth="yes"/>
			<point x="325" y="734"/>
			<point x="294" y="748"/>
			<point x="256" y="748" type="curve" smooth="yes"/>
			<point x="147" y="748"/>
			<point x="85" y="654"/>
			<point x="85" y="550" type="curve" smooth="yes"/>
			<point x="85" y="544" type="line"/>
			<point x="85" y="521"/>
			<point x="69" y="506"/>
			<point x="38" y="503" type="curve" smooth="yes"/>
			<point x="30" y="502"/>
			<point x="26" y="498"/>
			<point x="26" y="492" type="curve" smooth="yes"/>
			<point x="26" y="486"/>
			<point x="31" y="482"/>
			<point x="38" y="482" type="curve" smooth="yes"/>
			<point x="61" y="482" type="line"/>
			<point x="76" y="482"/>
			<point x="85" y="473"/>
			<point x="85" y="458" type="curve" smooth="yes"/>
			<point x="85" y="67" type="line"/>
			<point x="85" y="39"/>
			<point x="79" y="28"/>
			<point x="46" y="25" type="curve" smooth="yes"/>
			<point x="26" y="23" type="line"/>
			<point x="17" y="22"/>
			<point x="13" y="17"/>
			<point x="13" y="11" type="curve" smooth="yes"/>
			<point x="13" y="4"/>
			<point x="18" y="0"/>
		</contour>
	</outline>
</glyph>
